<?xml version="1.0" encoding="utf-8"?>
<!-- Generator: Adobe Illustrator 27.8.1, SVG Export Plug-In . SVG Version: 6.00 Build 0)  -->
<svg version="1.1" id="Layer_1" xmlns="http://www.w3.org/2000/svg" xmlns:xlink="http://www.w3.org/1999/xlink" x="0px" y="0px"
	 viewBox="0 0 7913 1594.8" style="enable-background:new 0 0 7913 1594.8;" xml:space="preserve">
<style type="text/css">
	.st0{fill:url(#SVGID_1_);}
	.st1{fill:url(#SVGID_00000137822008100726376250000000985330095932772737_);}
	.st2{fill:url(#SVGID_00000051349964530742694290000004025273314457912251_);}
	.st3{fill:url(#SVGID_00000160191199106992100790000012951144696965435063_);}
	.st4{fill:url(#SVGID_00000007424206560625506010000015168319746849473719_);}
	.st5{fill:url(#SVGID_00000138532023350851109240000007260079941744811686_);}
	.st6{fill:url(#SVGID_00000074400707464057500980000008623797499577172616_);}
	.st7{fill:url(#SVGID_00000066503739496972120870000007103429749514565552_);}
	.st8{fill:url(#SVGID_00000129923188942831583930000008793190279270328975_);}
	.st9{fill:url(#SVGID_00000010299106058688675880000010299681251956585353_);}
	.st10{fill:url(#SVGID_00000177462302584424513070000006847650398914570912_);}
	.st11{fill:url(#SVGID_00000069385035244508577930000009403016831679064726_);}
	.st12{fill:url(#SVGID_00000155857891713224099160000017599574785604998838_);}
</style>
<g>
	<radialGradient id="SVGID_1_" cx="-1160.348" cy="2164.4365" r="9882.1777" gradientUnits="userSpaceOnUse">
		<stop  offset="0" style="stop-color:#FF00FF"/>
		<stop  offset="1" style="stop-color:#00FFFF"/>
	</radialGradient>
	<path class="st0" d="M190.9,723h21.4l57-12.5l67.7-8.9l46.3-8.9v-1.8l80.2-128.3v-5.3l19.6-25l1.8-7.1l33.9-60.6v-10.7l14.3-8.9
		l12.5-23.2l17.8-10.7l37.4-16l37.4,10.7l21.4,28.5h10.7l-3.6,12.5v12.5l-30.3,46.3L574,583.9v7.1h-5.4v5.3l-16,23.2h-8.9l7.1,3.6
		l-21.4,32.1l-5.4,14.3h1.8l19.6-8.9l10.7,5.4v-5.4h5.4v3.6l-1.8,1.8h32.1l1.8-3.6v-1.8h-5.4l7.1-8.9h21.4l3.6-8.9h8.9v7.1h8.9v-7.1
		l3.6,3.6v-12.5l-1.8-1.8l-16,8.9l19.6-26.7H640l14.3-19.6v-3.6l12.5-12.5L738,469.9l25-51.7l3.6-1.8h1.8l5.4-12.5l30.3-49.9
		l19.6-10.7l42.8-3.6l3.6,5.4h17.8l10.7,10.7l7.1,24.9l8.9,3.6v-7.1h3.6l-5.3,24.9l-7.1,10.7l3.6,3.6l-7.1,14.3l-5.4-3.6l3.6,8.9
		h-10.7v10.7l-1.8,5.4l-12.5,10.7v5.3h-3.6L759.4,626.7l-5.3,10.7l135.5-12.5h33.9l33.9-1.8l-1.8,3.6l-8.9,3.6h-5.3l-33.9,5.4
		l-8.9,7.1v3.6h10.7l-1.8,1.8h-1.8l-83.8,19.6h-10.7l-32.1,5.3h-8.9l-44.6,5.4v5.3L852,665.9h7.1l8.9-1.8l-8.9,5.3l-106.9,26.7
		l-37.4,3.6l-10.7,5.4v3.6l-17.8,23.2l3.6,10.7h-10.7L643.5,796v5.4h7.1l96.2-14.3l67.7-7.1l8.9,3.6v5.3l-21.4,12.5h10.7l-12.5,10.7
		h3.6l-16,14.3h-16l-30.3,3.6l-8.9,3.6l-35.7,7.1l-87.3,10.7l-7.1,5.4v5.3l58.8-7.1l-1.8,1.8v3.6l-8.9,1.8h-7.1l-8.9,1.8h-10.7
		l-12.5,10.7l-5.3-7.1l-3.6,8.9l3.6,1.8h3.6l12.5-5.4h7.1l7.1,1.8l7.1,5.4l7.1-8.9l35.6-5.3v5.3h-12.5l8.9,5.4h-5.3l-7.1,1.8h-19.6
		l-17.8,8.9h-5.3l-33.9,5.3v5.4l-5.4-3.6v3.6l-17.8,10.7v5.3h3.6l51.7-10.7h5.3l7.1-1.8h7.1l80.2-16h5.4l-3.6,3.6l-82,19.6h-12.5
		l-1.8,3.6l-12.5,3.6h-8.9l-1.8,1.8l-48.1,12.5l-82,156.8v3.6L419,1214.9v7.1l-7.1,19.6l-8.9,37.4v7.1l-1.8,10.7v10.7l-12.5,21.4
		l-7.1,1.8h-5.4l-3.6-8.9l3.6-14.3l-12.5-3.6v-26.7l-3.6,21.4l-5.4-16l1.8-5.4V1263l-14.3,16l-14.3-28.5l-12.5-14.3v-3.6l1.8-5.3
		l7.1-5.4l5.4-42.8l12.5-26.7l3.6-17.8h3.6l1.8-1.8v10.7l-1.8,1.8h-1.8l-3.6,16h8.9l-3.6-8.9l5.3,3.6l5.4-7.1v-23.2l1.8-3.6v-1.8
		l5.3,10.7l-3.6,12.5l7.1-8.9V1124l8.9-3.6v-7.1h-7.1v-8.9h7.1v-7.1l7.1-7.1l3.6,3.6l-3.6-17.8l10.7,5.4l-3.6-8.9h3.6l1.8-7.1v-10.7
		l1.8-3.6h3.6l-3.6-5.3h8.9v-12.5l7.1-3.6h5.4l3.6,1.8l-3.6-8.9l5.3-8.9v-5.4h-7.1l14.3-8.9l-3.6-5.3l12.5-8.9h-1.8l-3.6-1.8
		l-1.8,1.8h-3.6l3.6-5.4h5.3l3.6,1.8v-3.6l-10.7-8.9l3.6,1.8h10.7l-3.6-5.4l10.7-7.1l-7.1,3.6v-8.9h-5.3l-10.7,8.9l-3.6-7.1
		l-42.8,8.9l-10.7,5.3l-41,10.7l7.1,5.4h-7.1l3.6,5.3h-10.7l7.1,3.6l-14.3,28.5l-1.8-1.8h-1.8l7.1-14.3l-8.9,10.7l3.6,12.5
		l-21.4,42.8l-14.3,42.8v25l-14.3,26.7h-3.6l-5.4,1.8v-17.8l-10.7,7.1l3.6-12.5h-3.6l-7.1,5.4l-10.7-17.8l-3.6,3.6l-7.1-12.5H214
		l-3.6-14.3h-5.4l-7.1-16v-1.8l-5.3-10.7l5.3-39.2l12.5-35.6v-7.1h-7.1l-16-19.6l-3.6-55.2l7.1-21.4l10.7-5.3h17.8l53.5-17.8
		l33.9-60.6h-5.4l-5.3-1.8L239,837l-14.3-7.1l5.3-7.1v-5.4l-14.3,5.4l1.8-5.4v-3.6l-14.3-14.3l-16-37.4l-3.6-37.4L190.9,723z
		 M280,1008.1l3.6,8.9h1.8l-3.6-12.5v1.8L280,1008.1z M285.3,1077.6v5.3h3.6l3.6-8.9L285.3,1077.6z M303.1,1042h5.4v-7.1h-1.8
		L303.1,1042z M326.3,865.5l7.1-12.5l-8.9,3.6v8.9H326.3z M329.9,845.9v1.8l8.9-3.6v-5.4L329.9,845.9z M335.2,1193.5h3.6l3.6-5.4
		h-7.1V1193.5z M342.3,1186.3h1.8v-19.6l-5.3,14.3L342.3,1186.3z M344.1,824.6v5.3h1.8l3.6-5.3H344.1z M353,1131.1v-7.1l5.4-3.6v7.1
		L353,1131.1z M365.5,1091.9h3.6v8.9l-10.7,12.5v-1.8L365.5,1091.9z M370.9,1086.5l7.1-19.6h3.6l-1.8,7.1v7.1l-8.9,8.9V1086.5z
		 M370.9,1214.9l10.7-7.1l-1.8-1.8v-1.8l5.3-7.1h-3.6l10.7-8.9l-7.1-3.6v-5.4l8.9,3.6v-5.4l-7.1-7.1l8.9,3.6l3.6-14.3l-7.1-16
		l-7.1,8.9l-10.7,30.3v5.3l1.8,5.4L370.9,1214.9z M379.8,1305.7v16l1.8-3.6v-8.9L379.8,1305.7z M386.9,1054.4v12.5h-1.8l-3.6-7.1
		L386.9,1054.4z M390.5,1045.5v-5.4h7.1l-3.6,5.4H390.5z M402.9,1124l-3.6-3.6l-3.6,10.7L402.9,1124z M411.9,1091.9v-5.4l-7.1,3.6
		v5.3L411.9,1091.9z M404.7,1191.7h8.9v-7.1l-1.8-8.9l-7.1,10.7V1191.7z M417.2,992.1l-3.6,10.7h-1.8v-7.1L417.2,992.1z
		 M413.6,838.8v3.6l5.3-3.6l-3.6,10.7h23.2l14.3-3.6l-3.6-1.8h-5.3l14.3-5.4l3.6,5.4h10.7v-5.4l5.4,3.6l8.9-8.9H501l12.5-21.4
		l5.4,3.6l-3.6,7.1l-8.9,3.6l3.6,8.9l10.7-8.9v7.1l7.1-3.6l-3.6-12.5l5.4,3.6l10.7-14.3l21.4-35.6l-7.1-5.4l-7.1,3.6h-12.5
		l-39.2,7.1H492l-35.6,5.4l-8.9,10.7h-7.1l1.8,1.8v3.6l-5.3,3.6l3.6,8.9l-8.9-7.1l-5.3,12.5v7.1l-7.1,3.6l7.1,7.1h-10.7L413.6,838.8
		z M413.6,1095.4v5.4l7.1-3.6l-3.6,14.3l7.1-14.3h3.6l-3.6-8.9l12.5,10.7l3.6-12.5l5.4,3.6v-7.1l-17.8,3.6l-5.3-10.7L413.6,1095.4z
		 M442.1,1052.7v-7.1l16-23.2l3.6,5.4l1.8-1.8h1.8l-1.8,5.3v5.4l5.4,3.6l12.5-16v-5.4l-7.1,3.6l-5.3,12.5l1.8-7.1v-8.9h-1.8
		l-3.6-1.8l5.3-3.6l19.6,8.9l-12.5,12.5l3.6,3.6l8.9-3.6l-3.6-7.1l5.3-3.6v-3.6l-1.8-3.6l10.7-7.1l-7.1-8.9l7.1,3.6v-5.4h-5.4
		l-8.9,17.8h-3.6l3.6-8.9l-8.9-7.1l3.6,14.3l-3.6-7.1l-3.6,1.8h-1.8v-10.7h7.1l-10.7-5.3l7.1-16h3.6l16-33.9h-5.3l-17.8,26.7
		l-3.6,12.5v5.3l-14.3,17.8l3.6,5.3l-5.4-3.6l-5.3,12.5l-3.6-7.1v12.5l-3.6,21.4l-14.3,24.9v3.6L442.1,1052.7z M454.6,1104.3
		l-1.8-5.3v-3.6l5.4-1.8h5.3v-16H460l-3.6,1.8l-10.7,24.9H454.6z M463.5,1066.9h5.4l7.1-12.5l-3.6-3.6v5.4L463.5,1066.9z
		 M474.2,1043.7v5.4l7.1-3.6v-5.4L474.2,1043.7z M488.5,990.3l3.6,7.1l-1.8-5.3v-5.4h5.3v8.9h5.4l3.6-10.7l-3.6-7.1l1.8,1.8h8.9
		l7.1-1.8l-3.6-5.3h3.6l3.6-1.8v-21.4l7.1,3.6l-3.6-8.9l8.9-10.7l-16,12.5l3.6,3.6h-7.1v-8.9h-5.3l-7.1,17.8h-3.6v-3.6l1.8-5.3h-3.6
		l-14.3,30.3l10.7-14.3v-3.6l5.4,5.3l-19.6,33.9L488.5,990.3z M490.3,762.2l7.1-1.8l48.1-3.6l10.7-12.5l5.4,3.6l-1.8,3.6v1.8h10.7
		l-3.6-5.3l8.9,3.6l5.4-17.8l-1.8-1.8v-1.8h-12.5l-1.8,7.1v5.3l-8.9-7.1l-51.7,10.7L501,755l-5.4-8.9v10.7l-14.3,5.4H490.3z
		 M506.3,960l-1.8,7.1l-5.3,8.9h-1.8v-5.3L506.3,960z M511.7,949.3l7.1,5.3l-8.9,14.3l3.6-14.3l-7.1,3.6v-5.3L511.7,949.3z
		 M509.9,710.5h5.3v-8.9h-5.3V710.5z M533,706.9V698l-7.1,1.8h-5.3l-1.8,3.6v3.6H533z M536.6,774.6h7.1l-7.1,3.6l-12.5,21.4v-5.3
		L536.6,774.6z M533,874.4l26.7-8.9l-1.8-1.8V862l-28.5,7.1L533,874.4z M547.3,705.1v-8.9h-1.8l-3.6,8.9H547.3z M579.4,705.1
		l8.9-12.5l-8.9,1.8h-10.7l-8.9,1.8h-8.9v8.9H579.4z M565.1,817.4l8.9-3.6v-5.4l10.7,3.6v-14.3h5.3l3.6-12.5h8.9l-3.6,8.9l16-17.8
		v5.4l5.3,3.6l-7.1,14.3l12.5-14.3v7.1l7.1-5.4l-8.9-12.5v-1.8l7.1-3.6l5.4,5.3l-7.1-3.6v8.9l5.4,3.6l16-24.9l-5.3-7.1l-14.3,16
		l8.9-19.6h-5.3v8.9h-3.6l-3.6,1.8l-3.6-1.8h-3.6l-3.6,8.9l3.6,5.4H615v5.3l-3.6-3.6l-10.7,10.7l-5.3-10.7l5.3-8.9l8.9-3.6H599
		L565.1,817.4z M572.3,724.7h17.8l-7.1-3.6L572.3,724.7z M586.5,701.6H599v-5.3h-3.6L586.5,701.6z M588.3,806.7v5.4l5.4-3.6v-5.3
		L588.3,806.7z M595.4,664.2h10.7l-3.6-3.6L595.4,664.2z M606.1,804.9l5.3,1.8v-5.3h-3.6l-5.3,1.8h-1.8v1.8H606.1z M615,742.6h8.9
		v-10.7l1.8-7.1L615,737.2V742.6z M615,751.5v7.1l3.6-7.1l5.4,3.6l-3.6-7.1L615,751.5z M627.5,715.8l5.3,14.3l1.8-7.1v-7.1l-3.6-3.6
		L627.5,715.8z M631.1,739h8.9v-5.4l-5.3-3.6l3.6,5.3L631.1,739z M647.1,712.3l-1.8-1.8h-1.8l-5.3,3.6v5.4L647.1,712.3z M640,726.5
		l3.6,10.7h8.9l-3.6-12.5l5.3,3.6l3.6-7.1h5.3v-8.9l12.5,3.6v-5.4l5.4,3.6v-8.9h-1.8l-8.9,8.9v-8.9h-3.6l-17.8,5.3l-3.6,12.5
		L640,726.5z M648.9,628.5l7.1-8.9h-7.1l3.6-5.3l5.4,3.6v-7.1l-5.4,1.8h-5.3l1.8,5.3v5.4h-5.4v5.3H648.9z M648.9,753.3h3.6l3.6-5.3
		h-7.1V753.3z M652.4,687.3l3.6,5.3h1.8l3.6-5.3H652.4z M652.4,721.2l3.6-5.3h5.3l-3.6,5.3H652.4z M654.2,600l3.6,5.3h3.6l3.6-5.3
		H654.2z M656,731.9v5.4h7.1l-3.6-8.9h-1.8L656,731.9z M663.1,723v8.9l7.1-8.9v-3.6L663.1,723z M663.1,853.1h8.9l-3.6,5.4h-1.8
		L663.1,853.1z M672,692.7v-5.3h-1.8l-3.6,5.3H672z M675.6,683.7v8.9h1.8l7.1-8.9H675.6z M686.3,813.9v1.8h12.5l1.8-3.6v-1.8
		L686.3,813.9z M698.8,849.5l3.6,5.4l-10.7,3.6h-5.4v-8.9H698.8z M688.1,867.3l7.1-3.6l3.6,3.6H688.1z M689.9,685.5v3.6h1.8l7.1-7.1
		L689.9,685.5z M700.6,626.7l-3.6-3.6l-5.3,10.7L700.6,626.7z M702.3,623.2h7.1l-7.1,19.6l7.1-3.6v-5.3l10.7,8.9l10.7-3.6v-10.7h7.1
		l-5.3-3.6l-14.3,16v-3.6l8.9-12.5l-8.9-8.9v7.1H713l-8.9-8.9v3.6L702.3,623.2z M714.8,812.1l17.8-3.6l-5.4-1.8H722L714.8,812.1z
		 M718.4,600l8.9-3.6l5.4-17.8h-5.4l-8.9,14.3V600z M727.3,603.6v5.3l5.4-3.6l8.9,17.8v-3.6l1.8-1.8l-10.7-14.3l5.3-7.1h-5.3
		l-3.6,1.8L727.3,603.6z M734.4,844.2l42.8-14.3h3.6l3.6,1.8L754,844.2l-21.4,3.6L734.4,844.2z M734.4,585.7l1.8,3.6v5.3l10.7-10.7
		h14.3v-14.3l-8.9,8.9l5.3-8.9h-7.1l-10.7,16H734.4z M761.2,804.9h1.8v-1.8h-26.7l-1.8,3.6v1.8L761.2,804.9z M745.1,610.7l7.1-8.9
		h-7.1l-3.6,8.9H745.1z M768.3,559l8.9-3.6v-5.3l-8.9,7.1l12.5-26.7l-16,17.8l-5.4,10.7H768.3z M789.7,651.7h25l24.9-1.8l10.7-3.6
		V641l-10.7,1.8h-8.9l-67.7,7.1v5.4L789.7,651.7z M770.1,803.2h14.3l-7.1-3.6L770.1,803.2z"/>
	
		<radialGradient id="SVGID_00000057142452836593768790000012650054053349671592_" cx="-1160.348" cy="2164.4365" r="9882.1777" gradientUnits="userSpaceOnUse">
		<stop  offset="0" style="stop-color:#FF00FF"/>
		<stop  offset="1" style="stop-color:#00FFFF"/>
	</radialGradient>
	<path style="fill:url(#SVGID_00000057142452836593768790000012650054053349671592_);" d="M941.1,1419.8l-7.1-41l12.5-12.5
		c10.7-5.9,20.2-11,28.5-15.1c8.3-4.2,15.4-7.4,21.4-9.8l-7.1-7.1l-7.1-14.3l5.4-51.7l7.1-14.3l3.6-23.2l21.4-82l21.4-60.6
		l51.7-126.5l7.1-7.1h-7.1l8.9-7.1v-10.7l1.8-10.7l14.3-14.3l-1.8-10.7l19.6-41h7.1l-1.8-10.7l16-35.6l7.1-10.7l26.7-57h5.3
		l7.1-28.5l28.5-49.9v-5.4l17.8-28.5l5.4-3.6v-7.1l49.9-99.8l41-74.9l1.8-8.9l12.5-30.3l33.9-58.8l-3.6-14.3h3.6l3.6,1.8l42.8-103.4
		v-10.7l16-23.2h48.1l8.9,1.8h8.9l19.6,10.7l5.4-3.6v8.9l21.4,35.6l7.1,5.3l-7.1,8.9v10.7l-1.8,10.7l10.7-10.7l-5.3,16l3.6,8.9
		l-8.9,23.2l-19.6,39.2l19.6-58.8l-1.8-1.8v-1.8l-12.5,5.3l-12.5,35.7l-7.1,5.3l5.4,10.7l-7.1-3.6v7.1l-106.9,203.2v5.3l-19.6,28.5
		l-7.1,24.9h-7.1l1.8,7.1l-17.8,32.1l-5.3,1.8L1360,657l7.1-5.4l5.3,3.6l7.1-14.3l-17.8-7.1l-3.6,5.3h-5.4l-30.3,35.7l1.8,10.7h5.3
		l17.8-35.7l7.1,3.6l1.8,7.1l-7.1-3.6l-10.7,19.6l17.8,16l-7.1-14.3l12.5-14.3l10.7,7.1l-10.7,25l-3.6,1.8l-12.5,26.7l-7.1-3.6
		v-12.5l1.8-14.3l-12.5,5.3l-10.7-14.3l-3.6,16l-7.1,1.8l1.8,10.7h7.1l3.6-8.9h10.7l8.9-1.8l-10.7,8.9l-5.4-3.6l-14.3,23.2l7.1,8.9
		l-7.1-3.6L1294,764v10.7l1.8,10.7l16-23.2l-5.3-12.5l5.3,5.3l14.3-17.8l-5.4,10.7l12.5-5.4v7.1h-10.7v5.3l1.8,5.4l-7.1,21.4h-10.7
		l3.6,7.1l-19.6-5.3h-7.1l5.3,10.7l-10.7,7.1v12.5l-3.6,1.8h-5.4l-24.9,49.9v14.3l-3.6,1.8l-19.6,28.5l5.3,5.3l10.7-7.1l14.3-37.4
		l5.3-1.8l1.8,12.5l3.6-1.8h5.3l-23.2,24.9l1.8,10.7l-14.3,21.4l3.6-1.8l-8.9,21.4l3.6,5.4h-12.5l1.8,8.9v10.7l-5.4-1.8h-5.3
		l10.7,10.7l-12.5,8.9l1.8,8.9v7.1l-7.1-14.3l-1.8,1.8v23.2h1.8l5.3-7.1l-51.7,101.6l-8.9,44.6l-21.4,28.5v23.2l-1.8,46.3
		c-1.2,3.6-1.8,6.5-1.8,8.9c-1.2,4.8-1.2,10.1,0,16h1.8l8.9-5.3l67.7-28.5l87.3-28.5l96.2-23.2l5.4-5.3l51.7-8.9l55.3-7.1l17.8,1.8
		h17.8l53.5,16l46.3,42.8v55.2l-7.1,16h-37.4l-7.1-7.1v-14.3h-8.9l-7.1-1.8h-41v-7.1l5.4,1.8h49.9l5.4,3.6v-5.3l-1.8-5.4l-12.5-1.8
		H1556l-8.9,3.6v-7.1l-23.2,7.1l-16-7.1l-3.6,12.5l14.3-1.8v7.1l-37.4,5.3l-5.3,10.7V1295l-46.3,8.9l-158.6,49.9l-92.7,39.2
		l-12.5,3.6l-76.6,39.2c-7.1,4.7-12.2,8-15.1,9.8c-3,1.8-5.1,2.7-6.2,2.7c-1.2,0-1.2-0.6,0-1.8c-1.2,0-3,0.6-5.3,1.8
		c-2.4,3.6-8.3,7.7-17.8,12.5l-32.1,21.4l-23.2,1.8l-21.4-12.5l-7.1-10.7L941.1,1419.8z M1044.5,1254.1h7.1l16-42.8l-5.3-10.7
		l10.7-12.5h-10.7l-8.9-1.8l-3.6,7.1h7.1v8.9l-1.8,10.7l7.1-5.3l1.8,7.1l-10.7,5.3l-5.4,28.5h-3.6l-5.3-1.8L1044.5,1254.1z
		 M1055.2,1152.5l-3.6,7.1l-5.4-1.8h-5.3l7.1,3.6l-7.1,10.7l12.5-3.6l3.6-14.3l-5.3-14.3l-7.1,1.8l5.4,5.3l-8.9,5.4H1055.2z
		 M1071.2,1164.9v5.3l-7.1,14.3h10.7l35.6-98h7.1l8.9-12.5l-7.1-3.6l-1.8-7.1l8.9,3.6l3.6-8.9l-8.9,1.8l3.6-5.4l12.5,3.6l-5.4,17.8
		v10.7l16-14.3l14.3-30.3v-17.8l7.1-5.4l46.3-101.6v-8.9l-1.8-8.9h10.7l7.1-21.4v-3.6l-1.8-3.6l14.3-14.3l1.8-5.4v-5.3l5.4-16
		l12.5-10.7l-3.6-10.7h7.1l7.1-17.8l21.4-37.4v-5.3l1.8-5.4l10.7-14.3l-5.3-7.1l-25,48.1h-8.9l-12.5,35.6h-5.3l1.8,16l-8.9-3.6
		l1.8,10.7l-7.1,1.8v10.7l-12.5,21.4v8.9l-12.5,8.9l-3.6,24.9l-7.1-5.3l5.4,10.7l-14.3,17.8v12.5l-5.3,12.5v-3.6l-1.8-3.6l-8.9,10.7
		l-1.8-5.3v-5.4l-3.6,10.7l-7.1-3.6l-8.9,35.6l1.8,7.1l5.3-5.4v8.9l-1.8,8.9l-16,26.7v14.3l-5.4-3.6l-3.6,10.7v-16l8.9-12.5
		l-7.1-21.4l16-46.3l1.8-12.5v-17.8l-1.8-8.9v-8.9l-14.3,14.3l5.4,5.4l5.3-3.6l1.8,8.9l-12.5-3.6l-3.6,10.7l-10.7-3.6l5.3,14.3
		l-7.1,10.7v-8.9l-1.8-8.9l-12.5,23.2l8.9,5.3l5.4-8.9l5.3,7.1l-12.5,7.1h-3.6l-1.8-1.8v8.9l5.3-1.8l8.9-8.9v12.5l-3.6,12.5h-17.8
		l1.8,12.5l7.1-1.8l-5.4,17.8h-12.5l8.9,8.9l-5.4,5.4v7.1l1.8,5.4l5.3,3.6l-3.6,17.8h-5.4l3.6-10.7l-10.7,5.3v-21.4l-3.6,14.3
		l-5.3,5.3l5.3,12.5l10.7-1.8v7.1l-7.1,5.3l-5.3-7.1l-14.3,1.8v3.6l1.8,3.6l16-5.4l-10.7,10.7l-12.5,7.1l5.4,7.1l5.3-10.7v5.4
		l1.8,3.6h10.7l-3.6,14.3l-5.4-1.8h-3.6l-3.6,10.7l-12.5,1.8l10.7,10.7l5.3-10.7v14.3h-10.7v8.9l-7.1-5.4v8.9L1071.2,1164.9z
		 M1074.8,1077.6l3.6,7.1h3.6v-7.1H1074.8z M1094.4,997.4l-3.6-3.6l-3.6,12.5L1094.4,997.4z M1094.4,1172.1v7.1l1.8,5.4l1.8-5.4
		v-7.1l7.1-14.3L1094.4,1172.1z M1105.1,1124l5.3,3.6h5.4v-7.1l-8.9,5.3l3.6-12.5h-7.1L1105.1,1124z M1124.7,1127.5l5.3-10.7
		l-3.6-16l-5.4-5.4l-5.3,21.4L1124.7,1127.5z M1126.5,936.8l10.7-1.8l-7.1-7.1h-12.5L1126.5,936.8z M1140.7,967.1v7.1h-7.1
		l-1.8-10.7L1140.7,967.1z M1162.1,870.9l5.4,7.1l5.3-10.7v23.2h-5.3l-7.1,1.8l-8.9-8.9l-7.1,3.6l1.8,17.8l16,3.6v8.9l-1.8,8.9
		l3.6,3.6l10.7-5.4V919l-10.7-7.1l16-7.1v-14.3h7.1l-10.7-16l14.3,10.7l-10.7-17.8l8.9-3.6l-1.8-12.5l-3.6,5.4l-17.8-10.7l7.1,8.9
		h-8.9l-21.4,21.4L1162.1,870.9z M1153.2,1018.8l-1.8-7.1h-3.6l-3.6,7.1H1153.2z M1147.9,1009.9l8.9-10.7l-5.4-3.6L1147.9,1009.9z
		 M1153.2,856.6l7.1-1.8l7.1-14.3l-5.4-5.3L1153.2,856.6z M1162.1,835.2h7.1l5.3,8.9v-8.9l-8.9-3.6l8.9-12.5l-3.6-3.6L1162.1,835.2z
		 M1163.9,979.6v-7.1l14.3-14.3l3.6,3.6l-16,23.2L1163.9,979.6z M1163.9,1049.1v10.7l7.1-5.4l-1.8-8.9l17.8-30.3l-10.7,3.6
		L1163.9,1049.1z M1197.8,840.6l1.8,19.6l8.9-14.3v-10.7l-1.8-10.7l-14.3,8.9v-3.6l-7.1,5.4L1197.8,840.6z M1188.9,992.1h1.8
		L1212,960l-1.8-8.9l17.8-17.8v-12.5h-3.6l-3.6,1.8l-14.3,19.6v10.7l-12.5,17.8l5.4,7.1l-12.5,12.5L1188.9,992.1z M1190.7,808.5
		l1.8,8.9l7.1,5.4h16v-7.1l1.8-7.1h8.9l-5.3-10.7l7.1-1.8l-1.8-12.5l5.4,5.3l8.9-16l-5.4-8.9l5.4,3.6l23.2-39.2v-7.1l23.2-35.6v-8.9
		l1.8-8.9l3.6,1.8h3.6v-7.1l-12.5-3.6l-10.7,14.3l5.3-10.7l-12.5,5.4v-3.6l26.7-14.3h10.7l5.3-10.7v-3.6l-17.8,1.8l-1.8,5.4v7.1
		H1278l-10.7-1.8l1.8,8.9l-14.3,5.3l7.1,12.5l-5.4,12.5l10.7-5.4l5.4,10.7l-7.1,17.8l-7.1-8.9l-10.7,5.4l-5.3-8.9l-3.6,17.8
		l-5.3-7.1l-5.4,14.3l5.4-5.3l23.2,3.6l-10.7,14.3v-8.9l-5.3-1.8h-7.1v10.7h-7.1l5.4,7.1h14.3l-3.6,7.1l-7.1-1.8h-5.3l-10.7,7.1
		l8.9,5.4l-10.7,10.7v-8.9l-3.6,17.8l-14.3,3.6l3.6-7.1l8.9,3.6l-5.4-8.9l-5.3,1.8l-10.7,26.7V808.5z M1256.6,721.2l-5.3-8.9
		l5.3-5.3l5.4,7.1L1256.6,721.2z M1260.1,872.7l-3.6-10.7l5.4-16h7.1v-10.7l14.3-17.8l-1.8-10.7h7.1V796l8.9-3.6l10.7,8.9l-8.9,12.5
		l-8.9-3.6v14.3l-7.1-3.6v7.1l10.7,3.6l-17.8,17.8l-7.1-3.6l7.1,16L1260.1,872.7z M1285.1,840.6l-5.4-5.3l-7.1,10.7L1285.1,840.6z
		 M1302.9,596.4l8.9,17.8h5.4l-5.4-17.8H1302.9z M1304.7,592.9h7.1v-8.9l-7.1,1.8V592.9z M1315.4,580.4h7.1l3.6-12.5l-5.4-3.6
		l1.8,8.9h-3.6l-1.8-1.8l-3.6,1.8h-3.6L1315.4,580.4z M1324.3,735.4l3.6-12.5l12.5,8.9l-7.1,7.1l-1.8-8.9L1324.3,735.4z
		 M1345.7,1245.1l10.7-8.9l-7.1,1.8l-10.7,8.9L1345.7,1245.1z M1365.3,621.4l-3.6-3.6l-5.3,14.3L1365.3,621.4z M1367.1,621.4
		l5.3,7.1h7.1l3.6-12.5l3.6,1.8h5.4l-1.8-5.3v-3.6l5.3-1.8l1.8-7.1v-8.9h10.7l-5.3-8.9l8.9-21.4l7.1,3.6l-3.6-16v-3.6l-1.8-3.6
		l-10.7,12.5l7.1,8.9l-8.9-3.6l-25,42.8h-7.1l5.3,8.9L1367.1,621.4z M1413.4,534l5.3,10.7l8.9-7.1l5.4,3.6l-8.9-19.6h10.7l3.6-12.5
		l-8.9-7.1l-10.7,26.7L1413.4,534z M1447.3,498.4l1.8,3.6v5.4l8.9-19.6l-12.5-5.4l-8.9,14.3v7.1L1447.3,498.4z M1441.9,516.2h3.6
		l3.6-7.1h-7.1V516.2z M1449.1,480.6l10.7-10.7l5.4,5.4l-5.4-12.5h-3.6L1449.1,480.6z M1466.9,1289.7l33.9-5.4v-7.1l-30.3,7.1
		L1466.9,1289.7z"/>
	
		<radialGradient id="SVGID_00000049941250256510835610000002283374933345674682_" cx="-1160.348" cy="2164.4365" r="9882.1777" gradientUnits="userSpaceOnUse">
		<stop  offset="0" style="stop-color:#FF00FF"/>
		<stop  offset="1" style="stop-color:#00FFFF"/>
	</radialGradient>
	<path style="fill:url(#SVGID_00000049941250256510835610000002283374933345674682_);" d="M1586.3,1238l-7.1-55.2l7.1-44.6
		l-3.6-10.7l8.9-3.6v-16l1.8-14.3l17.8-46.3l26.7-57h8.9l5.3-21.4l21.4-30.3h7.1l3.6-17.8l53.5-65.9l78.4-85.5l8.9-3.6l49.9-44.6
		l51.7-33.9l26.7-12.5l28.5-3.6l10.7,5.4l57,16l21.4,10.7l1.8,3.6l-3.6,5.3l14.3,12.5l30.3,44.6l3.6,37.4l-8.9,12.5l-3.6,42.8
		l-12.5,25l3.6,3.6l-17.8,26.7l-33.9,30.3h-7.1l-7.1,1.8l-64.2,33.9l-58.8,23.2l-16-3.6l-14.3,5.3h-7.1l-8.9,1.8h-49.9v8.9l-8.9-5.3
		l-12.5,24.9l-32.1,3.6l-7.1,8.9v7.1l7.1-5.4l-51.7,78.4l-30.3,62.4l-16,80.2v12.5l14.3,3.6l49.9-10.7l-7.1,7.1l8.9,1.8l1.8-8.9
		l5.4,5.3l7.1-10.7l5.4,1.8h5.3l-14.3,5.4l3.6,1.8h3.6l24.9-7.1v-3.6l-1.8-3.6l28.5-8.9l-17.8,8.9l7.1,1.8l26.7-19.6l7.1,7.1
		l-3.6-10.7l3.6,1.8h3.6l46.3-28.5l46.3-17.8l203.2-119.4l41-28.5l5.3,1.8h5.4l-3.6-3.6l87.3-57l23.2-12.5v12.5l-16,19.6v3.6
		l1.8,5.4l-25,19.6l21.4-23.2v-1.8l-1.8-1.8l-105.2,71.3l-28.5,14.3l-98,58.8l-49.9,24.9l-3.6,5.3l-30.3,10.7v3.6l1.8,5.3l32.1-14.3
		l10.7,7.1v-7.1l3.6-8.9l14.3,7.1l14.3-25l10.7,7.1l12.5-17.8l10.7,5.4l17.8-16l3.6,5.4l14.3-12.5l-16,8.9l1.8-8.9l10.7-3.6h5.3
		l7.1,1.8v-3.6l10.7-17.8l16,7.1l35.6-23.2l-1.8,7.1l-65.9,42.8l3.6,8.9h-16l-17.8,7.1h3.6l3.6,1.8L2055,1181h-10.7l-8.9,1.8
		l3.6,10.7l-8.9-7.1l-1.8,12.5l-7.1-5.3l-32.1,16l-1.8,7.1l-14.3,8.9l-7.1-1.8l-1.8,7.1l8.9,1.8l-23.2,16l3.6,12.5l-10.7,7.1
		l-8.9-1.8v3.6l-62.4,32.1l1.8,1.8v1.8l48.1-21.4h8.9l7.1,1.8l3.6-14.3l12.5-5.4l3.6,1.8h3.6l-7.1,7.1h3.6l35.6-21.4l-5.3-3.6
		l10.7,3.6l12.5-5.3l-3.6-8.9l-10.7,3.6l8.9-7.1l-7.1-1.8l-12.5,7.1l1.8-8.9h7.1l7.1-1.8l-3.6-7.1l8.9,1.8h7.1l-10.7,8.9l10.7,10.7
		l7.1-3.6l-16,12.5l-1.8,8.9l-17.8,10.7l-3.6-5.3l-21.4,23.2l-62.4,32.1l-23.2,14.3l-24.9,5.4l-7.1,12.5l-41,17.8l3.6,5.3l42.8-8.9
		l5.3,1.8l-7.1,7.1l-10.7-3.6l-39.2,16l-8.9-5.3l-1.8,12.5l-26.7,3.6l-37.4-7.1l-16-10.7l-46.3-10.7l-26.7-33.9l-5.3,3.6
		L1586.3,1238z M1589.8,1157.8h7.1l5.4-24.9l17.8-49.9l16-35.6v-5.4l-7.1,3.6l-23.2,44.6L1589.8,1157.8z M1643.3,1059.8l-3.6-5.4
		l-8.9,14.3L1643.3,1059.8z M1664.7,1147.1l7.1-14.3h-3.6l-5.4,1.8l-1.8,12.5H1664.7z M1673.6,1088.3l5.4-3.6l-1.8-5.3v-7.1
		L1673.6,1088.3z M1691.4,1061.6l-1.8-5.3v-5.4l-3.6,19.6L1691.4,1061.6z M1695,1081.2l25-21.4l1.8-12.5l8.9-10.7l1.8-12.5l-12.5,16
		l-1.8,12.5l-21.4,23.2v1.8L1695,1081.2z M1718.1,1024.2l10.7-19.6l-8.9,5.3l-8.9-12.5l-1.8,14.3l8.9-3.6l-1.8,5.4l-17.8,24.9v7.1
		l-1.8,7.1L1718.1,1024.2z M1748.4,1045.5v-1.8l-5.3,1.8l-10.7,12.5v5.3L1748.4,1045.5z M1837.6,956.4v3.6l12.5-5.4h3.6l1.8,1.8
		l33.9-16l53.5-19.6l14.3-8.9l28.5-12.5l44.6-33.9l32.1-39.2l-3.6-3.6l8.9-8.9l-5.3-5.4l-19.6,1.8h-17.8l-35.6,17.8l-10.7-3.6
		l-1.8,5.3h-1.8l-7.1,7.1l8.9-7.1v5.4l-14.3,10.7l-14.3,14.3l-64.2,44.6L1837.6,956.4z M1912.4,1225.5l14.3-5.4l-8.9-1.8l-12.5,5.3
		L1912.4,1225.5z M1924.9,1214.9l7.1,1.8l7.1-7.1l-7.1-1.8L1924.9,1214.9z M1933.8,1255.8v10.7l12.5-8.9L1933.8,1255.8z
		 M1987.3,1220.2l7.1,1.8l-5.4,5.4h-3.6v-3.6L1987.3,1220.2z M1990.8,1216.6l1.8-7.1l23.2-5.3l3.6,5.3l-17.8,8.9l-5.3-1.8H1990.8z
		 M2042.5,1204.2h3.6l5.4-1.8l-3.6,10.7l-10.7-1.8L2042.5,1204.2z M2067.5,1191.7l14.3-3.6l-12.5,10.7l-3.6-1.8L2067.5,1191.7z
		 M2101.3,1170.3l26.7-17.8h5.4l-1.8,3.6l-49.9,30.3L2101.3,1170.3z M2110.2,1132.9l7.1-7.1l-7.1-1.8l-7.1,7.1L2110.2,1132.9z
		 M2161.9,1106.1l7.1-10.7l8.9,3.6v-12.5l7.1,7.1l-5.3,7.1L2161.9,1106.1z"/>
	
		<radialGradient id="SVGID_00000091703199857037898060000010711843120628952229_" cx="-1160.348" cy="2164.4365" r="9882.1777" gradientUnits="userSpaceOnUse">
		<stop  offset="0" style="stop-color:#FF00FF"/>
		<stop  offset="1" style="stop-color:#00FFFF"/>
	</radialGradient>
	<path style="fill:url(#SVGID_00000091703199857037898060000010711843120628952229_);" d="M2766.1,616l-67.7,5.4l-12.5-1.8
		l-21.4,3.6l-1.8-1.8l-71.3,10.7h-3.6l-23.2,7.1H2554l-12.5,1.8l-5.3,5.4l-5.4-5.4l-3.6,3.6l-5.4-3.6v5.4l-7.1,3.6l-16,21.4
		l-73.1,115.8l-3.6,1.8l-85.5,151.5l-3.6,14.3l-8.9,7.1l-32.1,78.4l-5.4,5.4l-21.4,46.3l-1.8,10.7h-5.4l-1.8,14.3l-5.3,5.4
		l-28.5,83.8l1.8,7.1v7.1l-5.3-10.7v3.6l-8.9,37.4l-3.6,7.1l-8.9,51.7h1.8l5.3,16h3.6l3.6,1.8l-3.6,16v19.6l12.5-1.8l30.3-26.7
		l23.2-30.3l28.5-17.8l-3.6,1.8l-7.1,17.8l7.1-3.6v3.6l12.5-8.9l12.5-16l1.8,1.8h3.6l3.6-8.9l17.8-12.5l8.9-14.3l7.1,3.6l-1.8-5.4
		h3.6l3.6,1.8l-3.6-3.6l12.5-14.3l7.1,3.6l-5.4-5.3l39.2-33.9l69.5-66v-3.6l71.3-67.7l8.9-12.5l24.9-21.4h3.6l3.6,7.1l-30.3,35.6
		l12.5-14.3l1.8,5.4l-30.3,35.6l-8.9,7.1l-16,19.6h-5.3l-5.4,14.3h3.6l3.6,1.8l-10.7,8.9l1.8-5.4v-5.3h-5.3v1.8l1.8,1.8v7.1
		l-3.6-1.8h-1.8l3.6,7.1l-19.6,17.8l-10.7-10.7l-3.6,12.5l10.7-3.6v5.3l-10.7,10.7h-3.6v-1.8l-1.8-3.6v3.6l1.8,3.6l-12.5,14.3
		l-5.4-1.8h-5.3l8.9,3.6l-5.4,3.6l5.4,5.4l-5.4,1.8h-5.3l3.6-5.3l-7.1,5.3l8.9,5.4l-12.5,8.9v-7.1l3.6-3.6l-3.6-1.8l-12.5,17.8
		l-8.9,3.6v7.1h3.6l14.3-12.5l-17.8,19.6h-1.8l-8.9,10.7l-5.3,1.8h-5.4v5.3l-7.1,8.9l-23.2,19.6v3.6l5.4,3.6v3.6l-14.3,10.7l3.6,1.8
		h1.8l28.5-21.4v3.6l-28.5,26.7l-14.3,23.2l-8.9,3.6l1.8,5.3l96.2-83.8v-1.8l24.9-17.8v3.6l-26.7,26.7v3.6l-103.4,96.3l-19.6,12.5
		l-1.8-3.6l-7.1,8.9l-23.2,3.6l-3.6,5.3h1.8l7.1-1.8v3.6l-21.4,21.4l-10.7,1.8h-10.7l-1.8,5.4v1.8l-7.1-7.1l-14.3-3.6l-10.7-8.9
		h-8.9l7.1,8.9l-10.7-8.9l-1.8,7.1l-8.9-12.5h-7.1l-32.1-28.5v-3.6l-19.6-16l-17.8-24.9l-10.7-42.8v-55.2l7.1-39.2l8.9-3.6l-5.3,41
		l5.3-12.5l7.1-30.3h5.4v-3.6l-1.8-5.3l5.4-3.6v-12.5l-7.1-3.6l-7.1,26.7h-5.4l-3.6,1.8l10.7-37.4l5.3,3.6l-3.6-10.7l7.1-5.3l3.6-25
		l5.4,3.6l-3.6-14.3l7.1-12.5v8.9l7.1-8.9v3.6l-17.8,49.9h-5.4l3.6,12.5l5.3,1.8l7.1-12.5l-1.8-5.3v-3.6l8.9-7.1v7.1l5.3-3.6v-8.9
		l1.8-10.7h-5.3V1115h7.1l-3.6-5.3l7.1-3.6l-3.6-5.3l10.7-19.6l1.8-19.6l10.7,3.6l8.9-19.6l-5.3,1.8h-3.6v-10.7l12.5,5.3v-8.9
		l5.3-12.5l-7.1,8.9l-3.6-3.6l14.3-26.7v-7.1l1.8-5.4l17.8-17.8l8.9-14.3l-7.1-5.3l5.3-10.7l5.4,3.6l5.3-7.1l-8.9,5.4l1.8-10.7
		l8.9,5.3v-7.1l-5.3-5.4v-5.3l8.9,7.1l12.5-24.9l-1.8-1.8V894l-3.6,1.8h-1.8V894l12.5-21.4v5.4l1.8,3.6l10.7-12.5l-5.3-7.1l7.1,3.6
		l1.8-8.9l17.8-37.4l-7.1,3.6l1.8-14.3l8.9,8.9l-3.6-7.1l5.4-1.8h3.6l16-28.5l-1.8-1.8v-1.8l-10.7,17.8h-5.4l1.8-5.4h5.4l5.3-19.6
		l8.9,3.6l3.6-5.4l-7.1-3.6l1.8-8.9l12.5-12.5l1.8-8.9l19.6-37.4h5.4l-8.9,8.9l3.6,7.1l-7.1,12.5h5.3l14.3-28.5l-3.6-5.4h-1.8
		l-3.6-1.8l-112.3,39.2l-24.9,5.3l-8.9-1.8l-7.1-5.3l8.9-5.4l-12.5-16l-5.4-17.8v-8.9l7.1-19.6l17.8-21.4l82-23.2l14.3-7.1l14.3-1.8
		l82-19.6l7.1-12.5l1.8,1.8h1.8l-5.4,8.9l17.8-3.6v-1.8h7.1l1.8-1.8v-5.3l-8.9,7.1l-3.6-7.1l10.7-3.6V559h7.1v-10.7l8.9-10.7
		l7.1,3.6l-1.8-8.9v-7.1l12.5-10.7l7.1-19.6l19.6-21.4h-5.3l3.6-1.8l14.3-17.8v-8.9l-8.9,7.1v5.3l-26.7,33.9l-3.6-10.7l3.6,3.6
		l8.9-8.9v-8.9l-7.1,3.6l17.8-14.3l-3.6-8.9l8.9,5.4l-3.6-8.9l12.5-7.1l-3.6-5.3l10.7-3.6l-3.6-10.7l7.1,5.4v-14.3l5.4,3.6l10.7-8.9
		l-8.9,3.6v-3.6l7.1-12.5l7.1,5.3l-3.6-7.1l12.5-16l65.9-99.8l39.2-19.6l26.7-5.4l37.4,5.4l14.3,10.7l10.7,24.9l12.5-12.5v14.3
		l-1.8,14.3l-23.2,30.3L2734,354l-37.4,44.6l-3.6,1.8l-108.7,146.1l73.1-7.1h14.3l41,8.9l26.7,14.3l10.7,14.3L2766.1,616z
		 M2117.3,1252.3v-3.6l-1.8-3.6l-1.8,16L2117.3,1252.3z M2131.6,1282.6v-3.6l-1.8-5.4l-1.8,7.1v5.3L2131.6,1282.6z M2129.8,1289.7
		l-1.8-3.6l1.8,5.4V1289.7z M2144.1,1245.1l-3.6-7.1l-7.1,3.6v5.4l5.3-1.8H2144.1z M2137,1204.2l3.6-3.6l-3.6-8.9V1204.2z
		 M2140.5,1191.7l3.6-3.6l-1.8-3.6v-5.4l-1.8,7.1V1191.7z M2153,1102.6h-7.1v-7.1l7.1,3.6V1102.6z M2158.3,1263l-1.8-1.8h-1.8v8.9
		l-7.1-10.7l3.6,12.5v8.9v-1.8L2158.3,1263z M2156.6,1093.7h-7.1v-3.6l1.8-3.6l5.4,3.6V1093.7z M2156.6,1081.2l-1.8-5.4l1.8-1.8
		l3.6,10.7l-1.8,1.8h-1.8V1081.2z M2167.3,1204.2l-1.8-3.6v-5.3h-5.4l-5.3,23.2L2167.3,1204.2z M2165.5,1065.1l-3.6-14.3l7.1,7.1
		l-3.6,10.7l-8.9,3.6L2165.5,1065.1z M2163.7,1043.7l14.3-12.5l7.1-24.9l8.9-10.7v8.9l-19.6,46.3h-3.6l-3.6,3.6l5.3-7.1
		L2163.7,1043.7z M2185.1,1197l7.1-17.8l-5.3-5.3v-5.4l7.1,3.6l-3.6-10.7v-14.3l-7.1,10.7l1.8-7.1v-7.1l8.9-7.1h-8.9l-8.9,1.8
		l3.6-10.7l-8.9,8.9l-5.3,16l10.7-12.5l-3.6,19.6l-3.6,3.6l-5.3,24.9l5.3-1.8h3.6v-5.4h8.9v19.6L2185.1,1197z M2167.3,1234.4
		l-3.6-8.9v12.5L2167.3,1234.4z M2167.3,1107.9l5.3-3.6l-3.6-8.9v5.4L2167.3,1107.9z M2181.5,1204.2h-3.6l-3.6-1.8l1.8-8.9l-7.1-3.6
		l8.9,19.6l-10.7,8.9v1.8h8.9L2181.5,1204.2z M2183.3,1164.9h-1.8l-5.3-7.1l3.6-3.6L2183.3,1164.9z M2179.7,1122.2l10.7,7.1l3.6-1.8
		h3.6l5.3-8.9l1.8,1.8h1.8l1.8-16v-16l3.6-7.1l8.9,3.6l-3.6-12.5l10.7-7.1l-3.6,12.5l7.1-12.5l-5.4-3.6l7.1-21.4l-3.6-3.6l10.7-8.9
		v-14.3h8.9l1.8,1.8l7.1-10.7l-3.6-7.1h7.1l-3.6-8.9h7.1l-7.1-8.9h-3.6l-1.8,1.8l3.6-8.9l3.6,5.3l10.7-5.3v-5.4l1.8-3.6l-8.9,3.6
		v-8.9l5.3-5.3h3.6l3.6-1.8v8.9l7.1-12.5l-1.8-3.6v-5.3l12.5-10.7v-7.1h-5.4l-8.9,8.9h5.4l-8.9,8.9h-8.9l5.4-7.1l3.6,3.6l10.7-21.4
		h-12.5l-17.8,32.1v5.4l-1.8,5.3l-17.8,19.6l-10.7,30.3l3.6,7.1l-7.1-5.4l-1.8,3.6v5.4l-3.6,28.5l7.1-3.6l-5.3,10.7v7.1l-1.8,7.1
		l-5.4-16l-5.3,8.9v-7.1l-12.5,19.6h3.6l3.6,1.8v7.1l-5.3-5.4l-7.1,10.7l8.9,16h-7.1v5.4l7.1-3.6l-1.8,14.3l-7.1-3.6L2179.7,1122.2z
		 M2186.9,1264.7l-5.4-5.3l-1.8,10.7h3.6L2186.9,1264.7z M2382.9,803.2v-19.6l5.4,7.1l3.6-10.7h-1.8l-8.9-3.6L2308,908.3v3.6
		l-55.2,110.5l12.5-5.3v3.6l-16,30.3h-5.4l7.1-7.1l1.8-14.3l-8.9,7.1v7.1l-1.8,8.9l7.1,8.9l-10.7,7.1v5.3l1.8,5.4h-7.1v-3.6
		l-1.8-5.3v5.3l-1.8,5.4l7.1,7.1l-8.9,19.6l-37.4,108.7l-3.6,23.2l-5.4,7.1l3.6,12.5l1.8-7.1l7.1-12.5v-26.7h5.4l12.5-30.3v-10.7
		l1.8-12.5l5.4,1.8l8.9-21.4v-7.1l1.8-7.1l-7.1,3.6l12.5-14.3l-3.6-7.1h10.7l-3.6-12.5l5.3-1.8h3.6l-8.9-7.1l24.9-33.9V1042l16-39.2
		h5.4l5.3-21.4h7.1l-3.6-5.4l7.1-14.3l-7.1-16l8.9-3.6v-8.9l12.5-23.2v8.9l1.8,7.1l-3.6,1.8h-3.6l3.6,7.1l-10.7,12.5l-1.8,10.7
		l10.7-12.5l8.9-24.9l8.9-8.9l3.6-10.7l-16,5.4l3.6-7.1h3.6l3.6,1.8l3.6-10.7l-7.1-5.4h12.5l-3.6,14.3l26.7-44.6h-7.1l-10.7,21.4
		h-3.6l3.6-16l8.9-5.3l-5.3-7.1h7.1v-8.9h7.1l-3.6-5.3l10.7-23.2l5.3,1.8l7.1,7.1l8.9-16v-8.9L2382.9,803.2z M2183.3,1099h7.1v-7.1
		h-1.8L2183.3,1099z M2210,958.2l-5.4-5.3h8.9v-5.4l-7.1,3.6V944h8.9l10.7-23.2h-1.8V919l7.1-5.4l5.3-23.2v-5.4l7.1,5.4l-3.6-10.7
		h8.9v-5.4l1.8-5.3v-3.6l-1.8-1.8l16-12.5l-65.9,139l-5.4,5.4l7.1-24.9v-3.6L2210,958.2z M2202.9,1143.6l-1.8-3.6h-5.3v12.5l7.1-5.4
		V1143.6z M2197.6,1419.8l1.8,3.6l3.6-1.8L2197.6,1419.8z M2204.7,1020.6l3.6-10.7l-5.4,3.6v7.1H2204.7z M2226.1,1097.2l-1.8-3.6
		l-5.3,14.3l7.1-7.1V1097.2z M2245.7,1443v1.8h-8.9l-8.9-7.1L2245.7,1443z M2274.2,828.1l-1.8-1.8v-1.8l5.3-3.6v7.1l-10.7,17.8h-1.8
		l-5.3-7.1l5.3-3.6v5.3l-1.8,3.6L2274.2,828.1z M2268.8,1006.3l3.6-1.8l-3.6,10.7l-3.6-1.8L2268.8,1006.3z M2265.3,1416.2l12.5-3.6
		l-1.8-1.8L2265.3,1416.2z M2288.4,961.8h7.1l-14.3,33.9l-7.1,3.6v-8.9h7.1l-1.8-3.6v-5.3l1.8-7.1v-7.1l3.6,1.8h5.3l-1.8-3.6V961.8z
		 M2276,901.2l8.9,8.9h8.9l-1.8-5.4v-3.6l5.3,3.6l8.9-12.5l5.3,5.4v-21.4l3.6-1.8h3.6l1.8-7.1l16-17.8l1.8-12.5l5.4,1.8l-3.6-10.7
		h-5.3v10.7l-14.3,14.3v-7.1l-17.8,12.5l-17.8,21.4L2276,901.2z M2290.2,794.3h5.4v5.3l-14.3,14.3L2290.2,794.3z M2290.2,828.1v8.9
		h-3.6l-3.6-5.4L2290.2,828.1z M2290.2,785.3l5.4-3.6l5.3,7.1h-1.8l-1.8,1.8L2290.2,785.3z M2295.6,899.4v-7.1l7.1-3.6l-5.4,10.7
		H2295.6z M2313.4,760.4v3.6l-7.1,10.7l3.6-10.7l-7.1-3.6H2313.4z M2315.2,756.8l-3.6-7.1l3.6-3.6h8.9l-7.1,10.7H2315.2z
		 M2313.4,867.3v-8.9l7.1-3.6l-5.3,12.5H2313.4z M2322.3,821l7.1,8.9h1.8l14.3-26.7l-10.7,3.6l-12.5,12.5V821z M2340.1,792.5
		l8.9,5.3l1.8-5.3l12.5-14.3l-3.6,7.1l3.6,7.1l8.9-7.1l-1.8-7.1v-8.9l3.6,1.8h3.6l1.8-7.1v-7.1l16-12.5l-8.9-3.6l-1.8,3.6v3.6
		l-12.5-7.1l-10.7,16v5.4h-5.3L2340.1,792.5z M2349,808.5l-7.1,8.9v5.4h5.4l5.3-7.1L2349,808.5z M2347.3,740.8l7.1-8.9v-5.3
		l-7.1,8.9V740.8z M2352.6,1316.4l1.8-1.8h3.6l10.7-10.7l-3.6-3.6L2352.6,1316.4z M2365.1,845.9l1.8-5.4v-5.3l-7.1,8.9v5.3
		L2365.1,845.9z M2363.3,1289.7l14.3-5.4v-1.8L2363.3,1289.7z M2365.1,683.7v3.6h3.6l3.6-1.8v-1.8H2365.1z M2374,758.6v-7.1l7.1-3.6
		v7.1L2374,758.6z M2391.8,1284.4v8.9h-7.1v-3.6L2391.8,1284.4z M2386.5,739l12.5-3.6l-3.6-3.6L2386.5,739z M2388.3,1264.7v1.8h10.7
		v-3.6l-1.8-5.3L2388.3,1264.7z M2422.1,715.8l-8.9,5.3l-7.1-17.8l19.6-32.1h-3.6l-3.6-1.8h1.8v7.1h-1.8l-14.3,10.7l-10.7,16
		l3.6,10.7l-7.1,3.6v5.3l16-16l-5.3,14.3l7.1-3.6l3.6,7.1l-21.4,33.9l3.6,7.1l8.9-12.5l5.4,3.6l8.9-16h-7.1l8.9-8.9h-5.4l7.1-7.1
		L2422.1,715.8z M2402.5,781.8l-1.8-1.8v-1.8l-10.7,14.3L2402.5,781.8z M2395.4,1282.6l3.6,1.8v1.8l-5.4,1.8v-5.3H2395.4z
		 M2406.1,1284.4l3.6,3.6l-10.7,7.1L2406.1,1284.4z M2400.7,1255.8l10.7-3.6l8.9-7.1v-7.1L2400.7,1255.8z M2407.9,1271.9l-1.8-5.4
		l3.6,5.4v1.8l-1.8,1.8V1271.9z M2418.6,1275.4l-5.4,8.9h-1.8v-1.8L2418.6,1275.4z M2431,712.3l-7.1,8.9v5.4l7.1-8.9V712.3z
		 M2454.2,669.5v-1.8l-1.8-1.8h1.8h-3.6l-25,35.6v7.1h7.1l8.9-1.8l-5.4,8.9l10.7-12.5l1.8-7.1l-7.1-5.4l1.8-12.5l5.3,5.3
		L2454.2,669.5z M2425.7,674.8l3.6,10.7l7.1-3.6v-16l-3.6,1.8l1.8,1.8L2425.7,674.8z M2434.6,651.7l1.8-5.3l-7.1,3.6v3.6
		L2434.6,651.7z M2436.4,694.5h5.4v7.1l-10.7-1.8L2436.4,694.5z M2436.4,564.3h-1.8l21.4-33.9l-1.8-3.6v-3.6l3.6-1.8h5.4l-1.8,5.4
		L2436.4,564.3z M2441.7,642.8v3.6l1.8-3.6H2441.7z M2447.1,1214.9v3.6h3.6l3.6-5.4h-5.4L2447.1,1214.9z M2456,1172.1v5.3l3.6-5.3
		l33.9-30.3h-3.6L2456,1172.1z M2459.5,662.4h1.8l1.8-5.3h-3.6V662.4z M2466.7,664.2h-7.1v7.1h5.4l1.8-3.6V664.2z M2470.2,1188.1
		v-7.1l-7.1,3.6v3.6H2470.2z M2468.4,642.8l1.8-3.6l-5.3,3.6H2468.4z M2477.4,1197l-12.5,10.7l8.9-14.3L2477.4,1197z M2470.2,500.2
		h8.9v5.4l-5.3,3.6L2470.2,500.2z M2470.2,635.6l5.4,1.8l1.8-7.1l-5.3,1.8L2470.2,635.6z M2495.2,1179.2h-3.6l-3.6,1.8v-3.6l8.9-3.6
		l1.8-3.6v-3.6l10.7-1.8l-3.6-3.6l17.8-14.3v1.8l1.8,1.8L2495.2,1179.2z M2493.4,1154.3v7.1l10.7-10.7h-8.9L2493.4,1154.3z
		 M2543.3,1184.6h1.8l-46.3,42.8v-1.8l42.8-42.8L2543.3,1184.6z M2505.9,1129.3h5.3l3.6-5.4h-5.4L2505.9,1129.3z M2523.7,1143.6
		v-3.6l1.8,1.8h3.6l7.1-7.1l-7.1,12.5h-1.8L2523.7,1143.6z M2525.5,1109.7v1.8h1.8l23.2-21.4v-1.8L2525.5,1109.7z M2530.8,1132.9
		l-1.8,1.8l-3.6-3.6l5.3-7.1h3.6l14.3-17.8h3.6v3.6l-12.5,10.7l-3.6,8.9v1.8l1.8,1.8H2530.8z M2619.9,603.6l-7.1-1.8h-8.9l-1.8-1.8
		h-1.8l-1.8,5.3l-17.8,3.6h-5.4l-3.6-1.8v1.8l1.8,3.6l-5.3-5.4l-32.1,8.9l-7.1,8.9l89.1-17.8l1.8-1.8V603.6z M2541.5,632.1l-5.3-1.8
		v5.4l1.8-1.8h3.6V632.1z M2577.2,592.9l-7.1-1.8h-8.9l-12.5,7.1l-8.9,10.7h3.6l1.8-5.3l7.1-1.8h7.1l21.4-7.1l37.4-5.3h10.7l8.9-5.4
		l-8.9-1.8h-7.1l-25,7.1l-5.3-1.8L2577.2,592.9z M2552.2,1088.3l14.3-14.3h-1.8l-1.8-1.8L2552.2,1088.3z M2562.9,576.8l-1.8,3.6h3.6
		l3.6-3.6H2562.9z M2659.1,594.6h-8.9l-8.9-1.8l-14.3,5.3h-12.5l-1.8,1.8l16,3.6l3.6-3.6v1.8l1.8,1.8l10.7-5.4v1.8l1.8,1.8
		L2659.1,594.6z M2673.4,580.4l-7.1-1.8h-7.1l-19.6,3.6l-1.8,3.6l1.8,1.8h3.6l8.9-5.3l5.3,3.6L2673.4,580.4z M2718,594.6l-5.4-1.8
		h-5.3l-19.6-3.6l-17.8,5.3h5.4l3.6,1.8l1.8-1.8v-1.8l10.7,3.6h12.5l12.5,1.8L2718,594.6z"/>
	
		<radialGradient id="SVGID_00000172421045868737158560000004507083256412138890_" cx="-1160.348" cy="2164.4365" r="9882.1777" gradientUnits="userSpaceOnUse">
		<stop  offset="0" style="stop-color:#FF00FF"/>
		<stop  offset="1" style="stop-color:#00FFFF"/>
	</radialGradient>
	<path style="fill:url(#SVGID_00000172421045868737158560000004507083256412138890_);" d="M2484.5,1289.7l1.8-7.1l10.7-14.3h8.9
		l10.7-10.7l103.4-69.5l5.3-14.3h-7.1l1.8-17.8l-24.9-53.5l-8.9-49.9l10.7-74.9l7.1-21.4l39.2-83.8l37.4-57l55.2-65.9l14.3-3.6
		l14.3-12.5h62.4l58.8,16l19.6,12.5l-3.6,1.8h1.8l19.6,3.6l14.3,8.9l3.6,25l-7.1,3.6l-26.7,26.7l1.8,1.8l-14.3,23.2l-16,14.3
		l-7.1,3.6l-7.1,19.6h-5.4l-14.3,12.5l-33.9,37.4l-5.4-7.1l14.3-67.7l-1.8-14.3l-44.6,53.5l-10.7,7.1l-62.4,92.7l-25,58.8l3.6,12.5
		l-8.9-7.1l1.8,12.5v10.7l-8.9,14.3l8.9-49.9l30.3-67.7l23.2-42.8l23.2-28.5v-8.9l-23.2,23.2l-17.8,32.1h-5.3l-42.8,106.9l1.8,17.8
		v17.8l12.5,14.3v33.9h3.6l32.1-21.4l190.7-115.8h3.6l32.1-19.6h5.3l33.9-21.4l80.2-33.9l41-12.5l44.6,3.6v25h7.1v5.3h-8.9l-8.9,1.8
		l-80.2,35.7l8.9,8.9l21.4-10.7l-3.6-5.4h14.3l-3.6-8.9l7.1,5.4l5.3-8.9v10.7l-30.3,19.6h-7.1l-28.5,16h-7.1l26.7-19.6l-8.9-8.9
		l-14.3,14.3h-7.1l-21.4,16l-5.4-8.9l8.9-3.6h5.4l14.3-10.7l-1.8-5.3l-42.8,23.2h-5.4l-37.4,24.9h-10.7v7.1l10.7-3.6l3.6,7.1
		l-16,8.9l5.3-7.1l-10.7-3.6l-12.5,8.9l5.4,5.3l-8.9-5.3l-62.4,37.4v3.6l-1.8,1.8h-16l-3.6,14.3l-7.1-3.6l-3.6,14.3l-10.7-3.6
		l-25,17.8l3.6,3.6l-14.3,7.1l-7.1-5.4l5.3,8.9l23.2-10.7l8.9-12.5h10.7l10.7-1.8l-1.8,3.6l-105.2,67.7l5.4,3.6l8.9-8.9h7.1l5.4-1.8
		l10.7-12.5h10.7l21.4-8.9l-3.6,7.1l10.7-3.6l-5.3-16l14.3,10.7l-5.3-12.5l10.7-7.1l5.3,7.1l10.7-10.7l-5.3-8.9l5.3,5.3l26.7-24.9
		l10.7,3.6v-7.1l7.1,3.6l12.5-10.7l10.7,3.6l-3.6-12.5l14.3-8.9l-5.4,12.5l19.6-10.7l-3.6-8.9l10.7,3.6l32.1-19.6l8.9,3.6l-5.4-10.7
		l10.7,3.6l-16,23.2l-21.4,10.7l-3.6-7.1l-12.5,5.4l12.5,3.6l-48.1,30.3h-5.4l8.9-10.7v-1.8h-1.8l-19.6,14.3l-5.4,12.5h-10.7
		l-8.9,12.5l-78.4,46.3v5.3h-10.7l-10.7,14.3l8.9,7.1h-1.8l3.6,3.6h5.4l10.7,1.8l-7.1,8.9v1.8l-1.8,5.3l53.5,46.3l17.8,41l3.6-3.6
		v1.8l1.8,1.8h-1.8l-1.8-1.8l-12.5,28.5l3.6,10.7l-5.4-5.4l-37.4,23.2l-74.9,21.4h-106.9l-21.4-14.3l-14.3,3.6l5.4-5.4l-32.1-12.5
		l-23.2-35.6l-8.9-26.7l-7.1-41V1289.7z M2602.1,1327.1l17.8-14.3l-1.8,10.7l10.7-8.9v-8.9l12.5-3.6l-7.1,10.7l7.1-7.1v-8.9h17.8
		l3.6-3.6h3.6v5.3l-16,8.9l1.8-8.9h-8.9l3.6,5.4l-5.3,5.4l-12.5,21.4l55.2-5.4l33.9-16l5.4-10.7l-3.6,1.8h-1.8l-16-8.9l3.6-7.1
		l-5.3-3.6l-23.2,10.7l-3.6-8.9l-8.9,5.3v1.8l-14.3,5.3l16-10.7l-5.3-5.3l-57,41L2602.1,1327.1z M2611,1359.2h7.1v-7.1l12.5,5.3
		v-8.9H2611V1359.2z M2646.6,1252.3l14.3-3.6V1238l-46.3,33.9L2646.6,1252.3z M2643.1,1355.6h1.8v-3.6l1.8-3.6h-14.3L2643.1,1355.6z
		 M2641.3,1280.8v3.6l16-8.9v-3.6L2641.3,1280.8z M2664.5,1145.3l5.4-10.7l-3.6-12.5v10.7L2664.5,1145.3z M2676.9,1275.4l-1.8,8.9
		h5.4l10.7-10.7l-8.9-3.6l-12.5,3.6l-1.8,3.6v3.6L2676.9,1275.4z M2689.4,1182.8l28.5-14.3l1.8,1.8h3.6v-1.8l-1.8-3.6v-3.6l1.8-5.4
		h17.8l1.8-1.8v-3.6l32.1-23.2v8.9l14.3-3.6v-10.7l39.2-26.7h3.6l-5.4,12.5l12.5-8.9l-1.8-1.8v-3.6l19.6-17.8h3.6l5.3-1.8v5.4
		l-14.3,8.9h12.5l5.3-10.7l5.4,3.6l23.2-17.8l-14.3,5.4l14.3-17.8h12.5l10.7,1.8l5.4-7.1h-10.7l24.9-14.3l-5.3-7.1l-14.3,5.3
		l5.4-8.9l-65.9,41l-16-3.6l5.4,12.5l-16,5.3l-19.6,19.6l-16,5.4v7.1l-8.9-5.4v7.1l-21.4,8.9l-21.4,19.6h-16l-3.6,10.7l-8.9-3.6
		l1.8,7.1l-21.4,8.9l-14.3,14.3L2689.4,1182.8z M2732.2,1188.1l23.2-17.8h-3.6l-26.7,17.8H2732.2z M2796.4,1179.2l3.6-5.3l-3.6-8.9
		V1179.2z M2798.1,1120.4h10.7v-7.1l-10.7,5.4V1120.4z M2814.2,1131.1h16l-10.7,7.1h-5.4V1131.1z M2823.1,1184.6v-8.9h10.7l-1.8,3.6
		v3.6l-5.4,1.8H2823.1z M2851.6,1106.1l5.3,3.6l5.4-10.7h12.5l-32.1,26.7l-7.1,1.8h-7.1L2851.6,1106.1z M2876.6,1093.7l8.9-5.3
		l5.3,3.6l-8.9,8.9L2876.6,1093.7z M2899.7,1077.6h10.7l1.8,7.1h-12.5V1077.6z M2944.3,1029.5l12.5-5.3l-5.4,7.1h7.1l5.3-17.8h12.5
		l16-10.7l12.5,5.3l-1.8-3.6v-3.6l19.6-17.8l3.6,3.6l19.6-10.7l-5.3-3.6l7.1-1.8h10.7l3.6,1.8l14.3-5.4l-10.7-7.1l17.8,5.3l5.3-10.7
		l5.4,3.6l10.7-12.5l-25,3.6l-28.5,12.5h-3.6l-92.7,42.8v5.3h-10.7l-7.1,14.3L2944.3,1029.5z M2940.7,1056.2l3.6-7.1h16v7.1H2940.7z
		 M2960.3,1066.9v-7.1h7.1l-3.6,7.1H2960.3z M2974.6,1034.9l10.7-3.6l1.8,7.1l-12.5,3.6l-3.6-7.1H2974.6z M2971,1083l17.8-19.6h10.7
		l-5.4,7.1L2971,1083z M3001.3,1042v5.4l-5.4,10.7h-14.3l-8.9,1.8L3001.3,1042z M3001.3,1059.8l12.5-14.3l5.4,5.3l-8.9,3.6l3.6,5.4
		H3001.3z M3024.5,1029.5v5.4l-10.7,3.6l-1.8-5.4L3024.5,1029.5z M3028,1008.1l7.1-3.6l10.7-10.7l-14.3,3.6L3028,1008.1z
		 M3033.4,1040.2l7.1,3.6l-5.4,5.4h-1.8V1040.2z M3045.9,1034.9l8.9-3.6v5.4l-1.8,3.6l-10.7,3.6L3045.9,1034.9z M3047.6,993.9
		l7.1-1.8h5.3l14.3-8.9h-10.7L3047.6,993.9z M3056.6,1025.9l3.6-1.8h5.4l5.3,7.1h-3.6L3056.6,1025.9z"/>
	
		<radialGradient id="SVGID_00000165942353855682380230000001503406383436375991_" cx="-1160.348" cy="2164.4365" r="9882.1777" gradientUnits="userSpaceOnUse">
		<stop  offset="0" style="stop-color:#FF00FF"/>
		<stop  offset="1" style="stop-color:#00FFFF"/>
	</radialGradient>
	<path style="fill:url(#SVGID_00000165942353855682380230000001503406383436375991_);" d="M4136.6,206.1l-28.5,44.6h-5.3l7.1-19.6
		h7.1l8.9-23.2v-14.3l-17.8,35.7v1.8h-3.6l-23.2,16l-17.8,32.1l-44.6,62.4h-8.9l-7.1-1.8l5.4,14.3l-8.9-5.3v-8.9l-12.5,5.4l3.6,7.1
		l-32.1,35.7l23.2-39.2h-7.1l-23.2,28.5l5.3,8.9l-10.7,12.5l-12.5-10.7l33.9-37.4l5.4-14.3l-12.5-12.5l26.7-25l-5.4,14.3h10.7
		l8.9-23.2h7.1l19.6-35.6h-5.4l23.2-24.9l-5.4-19.6l10.7-17.8h-10.7v14.3l-7.1-16l-28.5,39.2l-14.3,26.7l-7.1,5.4l-25,41l-12.5,10.7
		v14.3h-8.9l-108.7,155l-26.7,30.3v3.6l-19.6,26.7l5.3,14.3h-12.5l-7.1,16l-19.6,21.4l8.9,10.7l-8.9,5.4l-10.7-5.4l3.6,8.9
		l-23.2,19.6l14.3,8.9h-3.6l-19.6,14.3l-16,5.3l-5.3,17.8l-44.6,60.6l-12.5,5.3v12.5l-12.5,12.5l-21.4,42.8h-7.1l-8.9,17.8l-41,55.3
		v12.5l-23.2,14.3v12.5l-10.7,7.1l-10.7,21.4h8.9l-14.3,26.7l-7.1-3.6l-24.9,19.6v5.4l-8.9,23.2l-17.8,3.6v-8.9l-21.4,30.3v3.6
		l19.6-17.8l-7.1,12.5l10.7,12.5l21.4-8.9l10.7,5.4l-1.8-19.6V1017h7.1l8.9-1.8l5.4,1.8h7.1l16-14.3l-5.4-12.5h10.7V976h7.1l16-28.5
		l-5.3-3.6v10.7l-5.4-3.6l7.1-16l16,5.4l16-25l14.3-10.7l7.1,12.5l-5.3,8.9l-12.5-3.6l-16,32.1h-7.1v8.9l12.5-5.4l-5.3,14.3h-7.1
		l-3.6,17.8l16-10.7l5.4-16h14.3l-28.5,35.6h-8.9l-5.4-14.3l-7.1,5.3v17.8h-8.9l-3.6-10.7l-7.1,16l12.5,8.9l17.8-5.3l-14.3,8.9h7.1
		l-12.5,14.3h-7.1l5.4-17.8l-26.7,19.6v3.6l10.7-7.1l-7.1,10.7l-7.1-5.4l-14.3,10.7l5.4,12.5l-8.9-5.4v19.6h-21.4l16,8.9l-5.4,12.5
		l-8.9-5.3l3.6,12.5l-21.4-3.6v10.7l14.3-5.3v5.3l-14.3,21.4l-10.7-3.6l-12.5,14.3h7.1l-10.7,12.5l5.4,14.3h14.3l-16,26.7h-16
		l-5.4,14.3l10.7-7.1l-7.1,21.4l-12.5,7.1v19.6l8.9-5.4l-5.3,14.3l-3.6-10.7h-8.9l-5.4,14.3l8.9-5.4l3.6,8.9l25-23.2l19.6-33.9
		l44.6-65.9l16-12.5v-12.5h8.9l7.1-21.4l10.7-12.5l42.8-64.2l23.2-21.4l83.8-121.2l8.9-17.8l8.9,5.3l-10.7,23.2h-7.1l-28.5,44.6
		h-7.1l-8.9,28.5l3.6,7.1l-17.8-3.6v17.8l-8.9-5.3v12.5l-14.3,5.4v14.3l-30.3,41v-7.1l-24.9,44.6l-32.1,37.4l1.8,3.6v3.6l-30.3,35.6
		v8.9l-35.6,42.8l-48.1,76.6l-7.1,3.6v10.7l-10.7,10.7l-41,57l-55.2,65.9l3.6,12.5l-8.9-5.3l-16,14.3l16-5.4v3.6l-37.4,24.9
		l-39.2,7.1l-16-16l-32.1-10.7l-28.5-17.8l-5.4-14.3l-8.9,5.4l-26.7-33.9l-19.6-19.6l-12.5-42.8l-14.3-115.8l10.7-12.5l-5.3-39.2
		l7.1,17.8l3.6-10.7l16-85.5l35.7-126.5v-14.3l-10.7,7.1l37.4-108.7v8.9l1.8,8.9l21.4-44.6l28.5-82l-7.1-16l12.5,7.1l-5.4-14.3h7.1
		v-24.9l24.9-49.9l3.6-21.4l16-33.9l-16,12.5l-71.3,74.9l-1.8-8.9v-8.9l121.2-240.6l-5.3-8.9l14.3-7.1l51.7-89.1l33.9-28.5l28.5-3.6
		l46.3,24.9l10.7,23.2l-5.3,17.8l19.6,8.9l5.4,10.7v41l14.3,12.5v10.7l-23.2,44.6h5.4l-25,32.1l-12.5,42.8l-10.7,8.9l-7.1,12.5
		l-7.1,23.2v7.1l-8.9,5.4l-19.6,42.8v14.3h-8.9v7.1l-37.4,83.8v8.9l-12.5,28.5l-23.2,64.2l-14.3,28.5l-8.9-5.4l5.4,16l-39.2,117.6
		l-48.1,176.4l-14.3,110.5v12.5l1.8,12.5v32.1l5.4-8.9l35.6-35.7l144.4-210.3l14.3-7.1l-1.8-5.4v-3.6l19.6-8.9l-3.6-10.7h3.6
		l5.3,1.8l5.4-17.8l10.7-7.1l-3.6-12.5l25-35.7l3.6-1.8h3.6v-8.9l32.1-41l8.9,5.4l-3.6-12.5l14.3-19.6l8.9,5.3l10.7-24.9v-12.5
		l14.3-5.4v-14.3l8.9,12.5l-5.3-17.8l14.3-12.5l14.3-26.7l10.7,3.6l53.5-74.9h7.1v-16l-26.7,32.1l1.8-7.1l21.4-30.3l7.1,3.6
		l26.7-26.7l5.4-19.6l-21.4,26.7v-8.9l23.2-33.9h8.9l-5.4,8.9h5.4l26.7-28.5v-12.5l8.9-5.3v-8.9l-8.9,5.4v8.9l-8.9,5.4l14.3-35.6
		l30.3-35.7l-5.3-7.1h8.9l5.3-16l26.7-30.3l5.3,5.4l-23.2,33.9l3.6,3.6l28.5-26.7l-5.3-12.5l8.9-7.1v12.5l12.5-23.2l-3.6-7.1
		l8.9,5.4l32.1-42.8l-8.9-3.6l5.4-8.9l-10.7-7.1l24.9-32.1h8.9l-19.6,23.2l14.3,8.9l8.9-12.5l-5.3-5.4l14.3-5.3l8.9-17.8l-23.2,3.6
		v-7.1l23.2-33.9l-10.7,7.1l24.9-37.4l8.9,5.3v-16l46.3-71.3h7.1v-8.9l37.4-55.2l8.9-26.7l-5.4-3.6l-58.8,46.3v-16l19.6-7.1
		l-10.7-5.3l-17.8,16l3.6,5.4l-8.9,10.7l-46.3,39.2l-7.1-3.6l3.6-8.9l101.6-126.5l32.1-21.4l41-5.3l42.8,8.9l28.5,26.7h14.3
		l14.3,24.9L4136.6,206.1z M3026.2,1182.8v-23.2l3.6,10.7L3026.2,1182.8z M3033.4,1136.4l1.8-8.9v-8.9l5.4,12.5L3033.4,1136.4z
		 M3051.2,1066.9h-3.6v-8.9l8.9-5.4L3051.2,1066.9z M3065.5,1197l-3.6,3.6l-5.4,28.5l8.9-5.4V1197z M3120.7,990.3l-5.3-7.1
		l-7.1,12.5l-3.6-16l-10.7,33.9l14.3-12.5l-30.3,108.7l-12.5,76.6l-5.3,7.1h10.7l1.8-17.8l12.5-58.8h8.9l-5.4-8.9L3120.7,990.3z
		 M3106.4,1109.7l-1.8-10.7v-8.9l-12.5,8.9l1.8,5.3v5.4l5.3-12.5L3106.4,1109.7z M3101.1,895.8h10.7v-8.9h-5.3L3101.1,895.8z
		 M3149.2,926.1l-8.9,10.7l10.7-5.3l3.6-17.8l-7.1,5.4v-14.3l33.9-32.1h-8.9l16-17.8h-8.9l-1.8,5.3v5.4l-8.9-17.8v-3.6l23.2,5.3
		v-1.8l-1.8-3.6l10.7-19.6l-5.4-5.4l-12.5,5.4v-17.8l14.3-12.5v-19.6l7.1-5.3l5.4,16l-3.6-28.5l-7.1-17.8l7.1,7.1l17.8-21.4
		l-8.9-28.5h7.1l7.1-23.2l8.9,12.5l-3.6-12.5l-8.9-3.6l-12.5,30.3v1.8l-41,96.2l-7.1,8.9l-17.8,49.9l-10.7,42.8h-8.9l5.3,14.3
		l-5.3,23.2h-12.5l5.3,8.9l8.9-5.3l-5.3,14.3h-12.5v12.5l5.4,14.3h7.1l5.3-23.2h14.3l-5.3-26.7L3149.2,926.1z M3127.8,1243.4h-7.1
		l-1.8,3.6v3.6l-1.8,7.1v7.1h7.1L3127.8,1243.4z M3124.3,840.6h-3.6v-12.5l7.1-5.3L3124.3,840.6z M3142.1,1141.8l-3.6,3.6l-5.4,33.9
		l8.9-5.3V1141.8z M3158.1,1111.5l14.3-33.9l-8.9-16l-7.1,24.9l3.6,14.3l-12.5-17.8v5.4L3158.1,1111.5z M3168.8,878h-7.1l5.4-19.6
		h1.8V878z M3188.4,1025.9l-19.6-19.6v10.7l16,5.3l-21.4,8.9l17.8,7.1L3188.4,1025.9z M3179.5,1043.7h-8.9l-5.4,8.9l5.4,8.9h8.9
		V1043.7z M3183.1,988.5v-8.9l-8.9,12.5v8.9L3183.1,988.5z M3208,931.5l-7.1,5.3v-14.3l-12.5,10.7l5.3,12.5h-10.7l5.4,8.9l8.9-5.3
		v8.9l-14.3,5.4v14.3l14.3-17.8l-5.4,16h8.9v-12.5h7.1V931.5z M3206.2,804.9l-8.9-8.9l-10.7,19.6l12.5-14.3L3206.2,804.9z
		 M3215.2,895.8h-8.9v8.9h8.9V895.8z M3227.6,853.1l-12.5,17.8v16h8.9l-3.6-14.3l7.1-5.3V853.1z M3224.1,845.9v3.6h7.1l23.2-62.4
		h-8.9v8.9L3224.1,845.9z M3241.9,922.6l-8.9,5.4v8.9l8.9-5.3V922.6z M3288.2,1428.7h8.9l-10.7,12.5h-3.6L3288.2,1428.7z
		 M3309.6,1409.1l-5.3,14.3h-8.9v-3.6L3309.6,1409.1z M3332.8,1378.8h3.6l-8.9,16l-16,12.5L3332.8,1378.8z M3336.4,1191.7
		l-12.5,10.7v5.4l1.8,5.3h-7.1l-5.4-1.8l10.7,12.5l-7.1,7.1l19.6-16V1191.7z M3336.4,1336l-5.4-12.5l-12.5,16l5.3-21.4l-10.7,14.3
		l5.4,8.9L3336.4,1336z M3350.6,1193.5v-17.8h17.8v-8.9h-10.7l5.3-12.5l-12.5-5.4v5.4l1.8,5.3l-1.8,7.1v7.1l-21.4,10.7l16-3.6
		l-5.3,12.5H3350.6z M3338.1,1157.8h7.1l3.6-19.6h-7.1L3338.1,1157.8z M3354.2,1350.3v8.9l-12.5,16v-8.9L3354.2,1350.3z
		 M3382.7,1211.3l-26.7,10.7l8.9,12.5h-14.3v3.6l5.3,14.3h7.1l10.7-12.5l3.6-19.6L3382.7,1211.3z M3373.8,1332.5l-12.5,16v1.8
		l-1.8,1.8v-14.3L3373.8,1332.5z M3400.5,1083l-7.1,21.4l1.8,5.4v5.3l-10.7,7.1l7.1-10.7h-3.6l-19.6,26.7l5.3,16l3.6-10.7h12.5
		l24.9-37.4l7.1,12.5l8.9-23.2l-3.6-3.6l-8.9,12.5v-8.9l17.8-16v-7.1l-14.3-16l3.6,8.9L3400.5,1083z M3377.3,1100.8l23.2-26.7v-8.9
		L3377.3,1100.8z M3391.6,1296.8h3.6l-8.9,17.8h-5.3L3391.6,1296.8z M3418.3,1259.4v7.1l-10.7,17.8l-5.3-1.8h-5.4l10.7-5.4l8.9-23.2
		L3418.3,1259.4z M3409.4,1157.8h8.9l-5.3,8.9h-3.6V1157.8z M3436.1,1156l-5.3,14.3h-8.9l10.7-17.8L3436.1,1156z M3441.5,1229.1
		l-14.3,24.9v-19.6L3441.5,1229.1z M3434.4,1136.4l23.2-26.7l12.5,10.7h-10.7v12.5l-12.5,10.7L3434.4,1136.4z M3445.1,1211.3h3.6
		v14.3h-7.1L3445.1,1211.3z M3491.4,1159.6l-32.1,42.8v-7.1L3491.4,1159.6z M3475.4,1107.9h-8.9l14.3-26.7l8.9-5.4l-5.3,19.6
		L3475.4,1107.9z M3491.4,1066.9l-7.1-8.9h10.7l5.3,8.9H3491.4z M3514.6,1127.5l-12.5,17.8l-12.5,12.5v-8.9L3514.6,1127.5z
		 M3559.1,1066.9l-8.9,7.1l-33.9,51.7h-3.6v-7.1l19.6-23.2l21.4-33.9L3559.1,1066.9z M3539.5,922.6h8.9l-5.4,8.9h-3.6V922.6z
		 M3543.1,828.1l30.3-41l8.9-5.3l-5.4,5.3l-26.7,41H3543.1z M3568,858.4h8.9l-16,19.6h-3.6L3568,858.4z M3594.8,999.2h8.9v3.6
		l-37.4,48.1v7.1h-8.9v-7.1l21.4-23.2L3594.8,999.2z M3610.8,890.5l14.3-5.4v-8.9l-23.2,21.4h-21.4v-5.4l12.5-10.7l3.6,10.7
		l12.5-21.4l-14.3,10.7l-5.4-5.3l17.8-17.8l-3.6-19.6l5.3,10.7h7.1l5.4-19.6l-12.5-7.1l19.6,5.3l35.7-49.9l8.9,1.8h8.9l3.6-16h-14.3
		l-7.1-8.9l10.7-10.7l-5.4,16h8.9l16-30.3l17.8-10.7l-16,28.5l14.3-12.5l-7.1,21.4h-8.9l-8.9-1.8l14.3,8.9l-19.6,26.7h-8.9l-7.1-1.8
		l-25,35.7l-1.8,12.5v12.5l-7.1-1.8h-7.1l-3.6,24.9h5.4l24.9-16l-26.7,42.8L3610.8,890.5z M3612.6,899.4v8.9l-14.3,5.3v-3.6
		L3612.6,899.4z M3824.7,690.9l-8.9,17.8l-21.4,21.4l-1.8,7.1v5.3l-103.4,139v5.4l-67.7,85.5l-5.4-8.9h14.3v-12.5l33.9-39.2
		l30.3-55.2l58.8-80.2l24.9-26.7v-7.1l25-28.5l8.9-19.6L3824.7,690.9z M3648.2,785.3l-14.3,16v-8.9l14.3-16V785.3z M3653.6,822.8
		l3.6,3.6l-14.3,10.7v-8.9L3653.6,822.8z M3655.4,854.9h-7.1l16-30.3h3.6l21.4-21.4l-14.3,28.5h-7.1L3655.4,854.9z M3660.7,819.2
		h-8.9l5.4-8.9h8.9L3660.7,819.2z M3660.7,674.8h-3.6v-8.9l8.9-5.4L3660.7,674.8z M3687.4,863.7H3675l17.8-26.7v-8.9l17.8-16v14.3
		l-16,17.8L3687.4,863.7z M3701.7,687.3h-8.9v-8.9l8.9-5.4V687.3z M3732,598.2h-16l-14.3,5.4l5.4,7.1h7.1L3732,598.2z M3710.6,701.6
		h10.7l-5.4-21.4l5.4,10.7l12.5-3.6l-3.6-5.4v-7.1h12.5v17.8h-1.8l-5.4-5.3l-16,23.2h-3.6L3710.6,701.6z M3797.9,699.8l5.4,5.4h-16
		v12.5l-33.9,53.5l-37.4,42.8v-12.5h8.9v-8.9l28.5-48.1l10.7-7.1l24.9-42.8l10.7-7.1h7.1L3797.9,699.8z M3719.5,756.8v-14.3
		l10.7-5.3l5.3,5.3L3719.5,756.8z M3792.6,608.9v1.8l-5.4,8.9h-12.5l8.9,10.7l14.3-12.5l-14.3,28.5l-16,12.5l10.7-19.6v-7.1
		l-12.5,10.7v-14.3h-8.9v7.1h-12.5l-12.5,1.8l16-8.9h5.4l12.5-17.8l7.1,8.9l17.8-12.5L3792.6,608.9z M3753.4,669.5h7.1l-5.4,14.3
		h-8.9l5.4-7.1l-16-12.5L3753.4,669.5z M3739.1,719.4l12.5-3.6v7.1h-12.5V719.4z M3751.6,665.9l1.8-7.1v-7.1h8.9l3.6,7.1
		L3751.6,665.9z M3773,692.7h-3.6v-8.9l8.9-5.3L3773,692.7z M3774.8,509.1v-8.9l17.8-26.7v12.5L3774.8,509.1z M3796.2,637.4
		l5.4,12.5l-17.8,26.7v-23.2l16-25l5.4,14.3L3796.2,637.4z M3815.8,576.8l-5.4,12.5l8.9-5.4v8.9l-14.3,23.2h-7.1v-8.9l14.3-8.9
		l-7.1-7.1l-3.6,10.7h-8.9l10.7-35.7L3815.8,576.8z M3821.1,566.1l-5.3,10.7l-3.6-12.5l12.5-12.5V543l-14.3,5.4v-8.9l17.8-16v17.8
		l24.9-24.9v12.5l-1.8,14.3l-17.8,26.7L3821.1,566.1z M3826.5,660.6h-7.1l16-28.5l10.7-8.9v10.7L3826.5,660.6z M3856.8,633.9h7.1
		l-35.6,51.7v-12.5L3856.8,633.9z M3837.1,553.6l7.1-5.3v-7.1l1.8-7.1l-8.9,5.4V553.6z M3837.1,575l14.3,5.4v3.6h-14.3V575z
		 M3906.6,345.1l-17.8-5.4l-16,35.6h-8.9v12.5l-12.5,12.5l10.7,7.1l21.4-23.2l1.8-12.5v-10.7h10.7l8.9-8.9L3906.6,345.1z
		 M3874.6,578.6h3.6l-8.9,19.6h-5.4L3874.6,578.6z M3885.3,493.1h7.1l-14.3,14.3h-5.4l19.6-32.1h-8.9l-10.7,23.2h-7.1v-12.5
		l1.8-12.5h7.1l21.4-7.1v16L3885.3,493.1z M3890.6,443.2h-3.6v-8.9h10.7L3890.6,443.2z M3935.2,311.3l-8.9-16l-30.3,42.8l10.7,7.1
		l1.8-7.1L3935.2,311.3z M3999.3,348.7v12.5l-3.6,14.3l-21.4,26.7l-5.4-3.6l1.8,7.1v8.9l-5.3-1.8h-3.6l-1.8,5.3v5.4l-32.1,51.7
		l-8.9,5.3v-10.7l-7.1,5.4l-12.5-8.9l10.7-10.7v-8.9l-14.3,17.8v-14.3l7.1-10.7l19.6,17.8v-10.7l14.3,5.4l5.4-8.9l-5.4-8.9
		l-14.3,10.7l1.8-3.6v-3.6l10.7-14.3l10.7,3.6l12.5-26.7l32.1-28.5V354L3999.3,348.7z M3922.7,528.7l-12.5,5.3v12.5l-14.3,10.7
		v-12.5l33.9-35.6l8.9-21.4l3.6,10.7L3922.7,528.7z M3904.9,507.3h-3.6v-8.9l14.3-10.7L3904.9,507.3z M3922.7,416.4v-7.1l8.9-10.7
		l3.6,7.1L3922.7,416.4z M3945.9,505.5v14.3l-23.2,24.9L3945.9,505.5z M3965.5,263.2l-5.4-5.4v10.7l-10.7-7.1l5.4,10.7l-12.5,5.3
		l3.6,8.9L3965.5,263.2z M3963.7,461l-17.8,30.3v-17.8l17.8-23.2V461z M3960.1,398.6h-10.7l5.4-8.9h5.3V398.6z M3979.7,250.7
		l-5.3-7.1l-10.7,7.1l5.3,8.9L3979.7,250.7z M3995.8,425.3l-23.2,19.6l5.3,7.1l-8.9,5.3l3.6-17.8l17.8-23.2L3995.8,425.3z
		 M3986.8,227.5h-8.9l5.4-10.7l-10.7,8.9l5.3,10.7h8.9V227.5z M3981.5,322l-8.9-5.3v10.7h8.9V322z M4045.7,250.7l-23.2,21.4
		l-8.9,26.7l-10.7-5.3l5.4,7.1l-21.4,21.4v19.6l16-17.8l16-28.5l7.1,3.6l7.1-8.9l-10.7,5.4v-7.1l23.2-33.9V250.7z M4004.7,190.1
		l-10.7,3.6l-1.8,12.5v12.5l12.5-10.7V190.1z M4010,396.8v10.7l-10.7,5.4l1.8-5.4v-7.1l7.1-12.5L4010,396.8z M4022.5,316.6v-10.7
		l-21.4,26.7v8.9L4022.5,316.6z M4022.5,363h8.9v7.1l-10.7,10.7h-7.1L4022.5,363z M4013.6,407.5h8.9l-5.3,8.9h-3.6V407.5z
		 M4058.1,177.6v-8.9l-14.3,3.6l-7.1,14.3l5.3-1.8h5.4L4058.1,177.6z M4058.1,231.1l-8.9,5.3v8.9h3.6L4058.1,231.1z M4058.1,197.2
		l14.3-16v-8.9l-10.7,3.6L4058.1,197.2z M4092,186.5l-5.4-5.4l-28.5,46.3h7.1L4092,186.5z M4067.1,322h-8.9v-8.9h8.9V322z
		 M4079.5,313.1h7.1l-19.6,26.7h-3.6L4079.5,313.1z M4092,140.2l-16-12.5l-3.6,3.6l10.7,19.6L4092,140.2z"/>
	
		<radialGradient id="SVGID_00000042007584153604917760000011419346383258539702_" cx="-1160.348" cy="2164.4365" r="9882.1777" gradientUnits="userSpaceOnUse">
		<stop  offset="0" style="stop-color:#FF00FF"/>
		<stop  offset="1" style="stop-color:#00FFFF"/>
	</radialGradient>
	<path style="fill:url(#SVGID_00000042007584153604917760000011419346383258539702_);" d="M3696.4,1239.8l3.6-82l12.5-46.3
		l28.5-87.3l101.6-197.8l67.7-110.5l8.9-17.8h10.7l7.1-10.7l26.7-12.5l44.6-8.9l21.4,3.6v10.7l23.2,17.8l5.3,23.2l-21.4,35.6v8.9
		l26.7-21.4l8.9-21.4v7.1l-14.3,33.9l-14.3,10.7l-37.4,48.1l-55.2,85.5l-1.8-1.8V903l19.6-33.9h-10.7v10.7l-64.2,110.5v7.1h-7.1v8.9
		l-17.8,23.2H3855v7.1l-5.3,14.3l17.8-19.6l-3.6,14.3v12.5l-5.4-1.8h-5.3l-21.4,5.3l-8.9,17.8l10.7-8.9l8.9,12.5l8.9-19.6v12.5
		l-19.6,41l-8.9-3.6l-16,3.6l-10.7,23.2v8.9l8.9-5.3l-5.3,21.4h7.1l8.9-14.3v-7.1l7.1-12.5v7.1l-7.1,12.5l-5.3,23.2l-7.1,12.5v-14.3
		h-7.1v5.3l-1.8,5.4l-5.3-25v8.9l-1.8,8.9l-7.1,5.3v14.3h7.1v12.5l-3.6,1.8h-3.6l-10.7,32.1l8.9,5.4h-7.1l8.9,10.7v7.1l-7.1-10.7
		l-1.8,8.9v10.7l-3.6,24.9h8.9v-16l7.1,5.3v-16l1.8-14.3v5.3l7.1,51.7h12.5l1.8-32.1v-33.9l16-65.9l5.4-3.6v3.6l-16,71.3v57h7.1
		l28.5-12.5l60.6-44.6l49.9-46.3h5.3l74.9-67.7h1.8L4190,999.2l14.3-21.4l5.4,5.4l-17.8,17.8v8.9l-24.9,32.1l-33.9,33.9l-24.9,30.3
		l10.7-8.9l7.1,5.3l-5.4-8.9h23.2l-12.5,16l-14.3,7.1v-5.3l1.8-3.6h-3.6l-5.4-1.8h-1.8l-7.1-5.3l-5.3,16h-5.4l-5.3,14.3l5.3-5.4
		l12.5,8.9l-5.3-8.9l7.1-5.3v14.3l-60.6,64.2l-48.1,58.8l-21.4,19.6v10.7l25-23.2l-14.3,23.2l-21.4,21.4l-32.1,24.9h-8.9v14.3
		l-16,17.8l-23.2,12.5v7.1h-7.1l-7.1-1.8l-55.2,5.3l-14.3-8.9l-12.5,5.4l-49.9-51.7l-14.3-28.5l-14.3-16L3696.4,1239.8z
		 M3780.1,1234.4l-3.6-5.3l7.1-10.7v8.9l-1.8,8.9l-10.7,3.6L3780.1,1234.4z M3781.9,1188.1h12.5l10.7,7.1l-5.3,16h-7.1l5.4-12.5
		L3781.9,1188.1z M3787.3,1238l5.3,5.3l-3.6,14.3l-5.4-16L3787.3,1238z M3790.8,1389.5h8.9l8.9,12.5h-3.6L3790.8,1389.5z
		 M3828.2,1115l3.6-5.3l-3.6-10.7V1115z M3947.7,1205.9l99.8-106.9l78.4-74.9l80.2-83.8l16-8.9h8.9l-23.2,28.5l3.6,10.7h-5.4
		l-5.3,1.8L4083.1,1083l-69.5,69.5h-5.3L3947.7,1205.9z M3961.9,863.7l10.7,3.6h1.8l17.8-32.1h5.4v-16l14.3-16l-21.4,17.8v10.7
		l-10.7,3.6L3961.9,863.7z M4010,803.2l23.2-28.5l-3.6-3.6l-12.5,16L4010,803.2z M4031.4,1188.1l12.5-7.1h-14.3l-5.4,7.1H4031.4z
		 M4036.8,1175.6h8.9v-7.1h-3.6L4036.8,1175.6z M4043.9,434.2l23.2-73.1l19.6-33.9l44.6-10.7l41,16l10.7,12.5l7.1,42.8l-7.1,24.9
		l-46.3,83.8l-26.7,24.9c-4.8,4.8-9.2,6.5-13.4,5.4c-4.2-1.2-7.7-4.2-10.7-8.9c-3-4.7-5.6-10.4-8-16.9c-2.4-6.5-5.3-12.2-8.9-16.9
		c-7.1-10.7-14.3-18.4-21.4-23.2C4040.3,456.2,4039.1,447.3,4043.9,434.2z M4049.2,1177.4l7.1-8.9h5.4v-16l-8.9,5.3l5.3,5.4
		l-8.9,5.3V1177.4z M4068.8,1140l5.4,12.5l7.1-8.9l-8.9-8.9L4068.8,1140z M4084.9,1140h7.1v-3.6l-7.1-3.6V1140z M4177.6,1056.2
		l-17.8,24.9l-7.1,5.3v-7.1L4177.6,1056.2z"/>
	
		<radialGradient id="SVGID_00000154427458712896029050000000006568486056901292_" cx="-1160.348" cy="2164.4365" r="9882.1777" gradientUnits="userSpaceOnUse">
		<stop  offset="0" style="stop-color:#FF00FF"/>
		<stop  offset="1" style="stop-color:#00FFFF"/>
	</radialGradient>
	<path style="fill:url(#SVGID_00000154427458712896029050000000006568486056901292_);" d="M4722.9,616l-67.7,5.4l-12.5-1.8
		l-21.4,3.6l-1.8-1.8l-71.3,10.7h-3.6l-23.2,7.1h-10.7l-12.5,1.8l-5.3,5.4l-5.4-5.4l-3.6,3.6l-5.4-3.6v5.4l-7.1,3.6l-16,21.4
		l-73.1,115.8l-3.6,1.8l-85.5,151.5l-3.6,14.3l-8.9,7.1l-32.1,78.4l-5.4,5.4l-21.4,46.3l-1.8,10.7h-5.4l-1.8,14.3l-5.3,5.4
		l-28.5,83.8l1.8,7.1v7.1l-5.3-10.7v3.6l-8.9,37.4l-3.6,7.1l-8.9,51.7h1.8l5.3,16h3.6l3.6,1.8l-3.6,16v19.6l12.5-1.8l30.3-26.7
		l23.2-30.3l28.5-17.8l-3.6,1.8l-7.1,17.8l7.1-3.6v3.6l12.5-8.9l12.5-16l1.8,1.8h3.6l3.6-8.9l17.8-12.5l8.9-14.3l7.1,3.6l-1.8-5.4
		h3.6l3.6,1.8l-3.6-3.6l12.5-14.3l7.1,3.6l-5.4-5.3l39.2-33.9l69.5-66v-3.6l71.3-67.7l8.9-12.5l24.9-21.4h3.6l3.6,7.1l-30.3,35.6
		l12.5-14.3l1.8,5.4l-30.3,35.6l-8.9,7.1l-16,19.6h-5.3l-5.4,14.3h3.6l3.6,1.8l-10.7,8.9l1.8-5.4v-5.3h-5.3v1.8l1.8,1.8v7.1
		l-3.6-1.8h-1.8l3.6,7.1l-19.6,17.8l-10.7-10.7l-3.6,12.5l10.7-3.6v5.3l-10.7,10.7h-3.6v-1.8l-1.8-3.6v3.6l1.8,3.6l-12.5,14.3
		l-5.4-1.8h-5.3l8.9,3.6l-5.4,3.6l5.4,5.4l-5.4,1.8h-5.3l3.6-5.3l-7.1,5.3l8.9,5.4l-12.5,8.9v-7.1l3.6-3.6l-3.6-1.8l-12.5,17.8
		l-8.9,3.6v7.1h3.6l14.3-12.5l-17.8,19.6h-1.8l-8.9,10.7l-5.3,1.8h-5.4v5.3l-7.1,8.9l-23.2,19.6v3.6l5.4,3.6v3.6l-14.3,10.7l3.6,1.8
		h1.8l28.5-21.4v3.6l-28.5,26.7l-14.3,23.2l-8.9,3.6l1.8,5.3l96.2-83.8v-1.8l24.9-17.8v3.6l-26.7,26.7v3.6l-103.4,96.3l-19.6,12.5
		l-1.8-3.6l-7.1,8.9l-23.2,3.6l-3.6,5.3h1.8l7.1-1.8v3.6l-21.4,21.4l-10.7,1.8H4206l-1.8,5.4v1.8l-7.1-7.1l-14.3-3.6l-10.7-8.9h-8.9
		l7.1,8.9l-10.7-8.9l-1.8,7.1l-8.9-12.5h-7.1l-32.1-28.5v-3.6l-19.6-16l-17.8-24.9l-10.7-42.8v-55.2l7.1-39.2l8.9-3.6l-5.3,41
		l5.3-12.5l7.1-30.3h5.4v-3.6l-1.8-5.3l5.4-3.6v-12.5l-7.1-3.6l-7.1,26.7h-5.4l-3.6,1.8l10.7-37.4l5.3,3.6l-3.6-10.7l7.1-5.3l3.6-25
		l5.4,3.6l-3.6-14.3l7.1-12.5v8.9l7.1-8.9v3.6l-17.8,49.9h-5.4l3.6,12.5l5.3,1.8l7.1-12.5l-1.8-5.3v-3.6l8.9-7.1v7.1l5.3-3.6v-8.9
		l1.8-10.7h-5.3V1115h7.1l-3.6-5.3l7.1-3.6l-3.6-5.3l10.7-19.6l1.8-19.6l10.7,3.6l8.9-19.6l-5.3,1.8h-3.6v-10.7l12.5,5.3v-8.9
		l5.3-12.5l-7.1,8.9l-3.6-3.6l14.3-26.7v-7.1l1.8-5.4l17.8-17.8l8.9-14.3l-7.1-5.3l5.3-10.7l5.4,3.6l5.3-7.1l-8.9,5.4l1.8-10.7
		l8.9,5.3v-7.1l-5.3-5.4v-5.3l8.9,7.1l12.5-24.9l-1.8-1.8V894l-3.6,1.8h-1.8V894l12.5-21.4v5.4l1.8,3.6l10.7-12.5l-5.3-7.1l7.1,3.6
		l1.8-8.9l17.8-37.4l-7.1,3.6l1.8-14.3l8.9,8.9l-3.6-7.1l5.4-1.8h3.6l16-28.5l-1.8-1.8v-1.8l-10.7,17.8h-5.4l1.8-5.4h5.4l5.3-19.6
		l8.9,3.6l3.6-5.4l-7.1-3.6l1.8-8.9l12.5-12.5l1.8-8.9l19.6-37.4h5.4l-8.9,8.9l3.6,7.1l-7.1,12.5h5.3l14.3-28.5l-3.6-5.4h-1.8
		l-3.6-1.8l-112.3,39.2l-24.9,5.3l-8.9-1.8l-7.1-5.3l8.9-5.4l-12.5-16l-5.4-17.8v-8.9l7.1-19.6l17.8-21.4l82-23.2l14.3-7.1l14.3-1.8
		l82-19.6l7.1-12.5l1.8,1.8h1.8l-5.4,8.9l17.8-3.6v-1.8h7.1l1.8-1.8v-5.3l-8.9,7.1l-3.6-7.1l10.7-3.6V559h7.1v-10.7l8.9-10.7
		l7.1,3.6l-1.8-8.9v-7.1l12.5-10.7l7.1-19.6l19.6-21.4h-5.3l3.6-1.8l14.3-17.8v-8.9l-8.9,7.1v5.3l-26.7,33.9l-3.6-10.7l3.6,3.6
		l8.9-8.9v-8.9l-7.1,3.6l17.8-14.3l-3.6-8.9l8.9,5.4l-3.6-8.9l12.5-7.1l-3.6-5.3l10.7-3.6l-3.6-10.7l7.1,5.4v-14.3l5.4,3.6l10.7-8.9
		l-8.9,3.6v-3.6l7.1-12.5l7.1,5.3l-3.6-7.1l12.5-16l65.9-99.8l39.2-19.6l26.7-5.4l37.4,5.4l14.3,10.7l10.7,24.9l12.5-12.5v14.3
		l-1.8,14.3l-23.2,30.3l-10.7,19.6l-37.4,44.6l-3.6,1.8l-108.7,146.1l73.1-7.1h14.3l41,8.9l26.7,14.3l10.7,14.3L4722.9,616z
		 M4074.2,1252.3v-3.6l-1.8-3.6l-1.8,16L4074.2,1252.3z M4088.4,1282.6v-3.6l-1.8-5.4l-1.8,7.1v5.3L4088.4,1282.6z M4086.6,1289.7
		l-1.8-3.6l1.8,5.4V1289.7z M4100.9,1245.1l-3.6-7.1l-7.1,3.6v5.4l5.3-1.8H4100.9z M4093.8,1204.2l3.6-3.6l-3.6-8.9V1204.2z
		 M4097.3,1191.7l3.6-3.6l-1.8-3.6v-5.4l-1.8,7.1V1191.7z M4109.8,1102.6h-7.1v-7.1l7.1,3.6V1102.6z M4115.1,1263l-1.8-1.8h-1.8v8.9
		l-7.1-10.7l3.6,12.5v8.9v-1.8L4115.1,1263z M4113.4,1093.7h-7.1v-3.6l1.8-3.6l5.4,3.6V1093.7z M4113.4,1081.2l-1.8-5.4l1.8-1.8
		l3.6,10.7l-1.8,1.8h-1.8V1081.2z M4124.1,1204.2l-1.8-3.6v-5.3h-5.4l-5.3,23.2L4124.1,1204.2z M4122.3,1065.1l-3.6-14.3l7.1,7.1
		l-3.6,10.7l-8.9,3.6L4122.3,1065.1z M4120.5,1043.7l14.3-12.5l7.1-24.9l8.9-10.7v8.9l-19.6,46.3h-3.6l-3.6,3.6l5.3-7.1
		L4120.5,1043.7z M4141.9,1197l7.1-17.8l-5.3-5.3v-5.4l7.1,3.6l-3.6-10.7v-14.3l-7.1,10.7l1.8-7.1v-7.1l8.9-7.1h-8.9l-8.9,1.8
		l3.6-10.7l-8.9,8.9l-5.3,16l10.7-12.5l-3.6,19.6l-3.6,3.6l-5.3,24.9l5.3-1.8h3.6v-5.4h8.9v19.6L4141.9,1197z M4124.1,1234.4
		l-3.6-8.9v12.5L4124.1,1234.4z M4124.1,1107.9l5.3-3.6l-3.6-8.9v5.4L4124.1,1107.9z M4138.3,1204.2h-3.6l-3.6-1.8l1.8-8.9l-7.1-3.6
		l8.9,19.6l-10.7,8.9v1.8h8.9L4138.3,1204.2z M4140.1,1164.9h-1.8l-5.3-7.1l3.6-3.6L4140.1,1164.9z M4136.5,1122.2l10.7,7.1l3.6-1.8
		h3.6l5.3-8.9l1.8,1.8h1.8l1.8-16v-16l3.6-7.1l8.9,3.6l-3.6-12.5l10.7-7.1l-3.6,12.5l7.1-12.5l-5.4-3.6l7.1-21.4l-3.6-3.6l10.7-8.9
		v-14.3h8.9l1.8,1.8l7.1-10.7l-3.6-7.1h7.1l-3.6-8.9h7.1l-7.1-8.9h-3.6l-1.8,1.8l3.6-8.9l3.6,5.3l10.7-5.3v-5.4l1.8-3.6l-8.9,3.6
		v-8.9l5.3-5.3h3.6l3.6-1.8v8.9l7.1-12.5l-1.8-3.6v-5.3l12.5-10.7v-7.1h-5.4l-8.9,8.9h5.4l-8.9,8.9h-8.9l5.4-7.1l3.6,3.6l10.7-21.4
		H4231l-17.8,32.1v5.4l-1.8,5.3l-17.8,19.6l-10.7,30.3l3.6,7.1l-7.1-5.4l-1.8,3.6v5.4l-3.6,28.5l7.1-3.6l-5.3,10.7v7.1l-1.8,7.1
		l-5.4-16l-5.3,8.9v-7.1l-12.5,19.6h3.6l3.6,1.8v7.1l-5.3-5.4l-7.1,10.7l8.9,16h-7.1v5.4l7.1-3.6l-1.8,14.3l-7.1-3.6L4136.5,1122.2z
		 M4143.7,1264.7l-5.4-5.3l-1.8,10.7h3.6L4143.7,1264.7z M4339.7,803.2v-19.6l5.4,7.1l3.6-10.7h-1.8l-8.9-3.6l-73.1,131.9v3.6
		l-55.2,110.5l12.5-5.3v3.6l-16,30.3h-5.4l7.1-7.1l1.8-14.3l-8.9,7.1v7.1l-1.8,8.9l7.1,8.9l-10.7,7.1v5.3l1.8,5.4h-7.1v-3.6
		l-1.8-5.3v5.3l-1.8,5.4l7.1,7.1l-8.9,19.6l-37.4,108.7l-3.6,23.2l-5.4,7.1l3.6,12.5l1.8-7.1l7.1-12.5v-26.7h5.4l12.5-30.3v-10.7
		l1.8-12.5l5.4,1.8l8.9-21.4v-7.1l1.8-7.1l-7.1,3.6l12.5-14.3l-3.6-7.1h10.7l-3.6-12.5l5.3-1.8h3.6l-8.9-7.1l24.9-33.9V1042l16-39.2
		h5.4l5.3-21.4h7.1l-3.6-5.4l7.1-14.3l-7.1-16l8.9-3.6v-8.9l12.5-23.2v8.9l1.8,7.1l-3.6,1.8h-3.6l3.6,7.1l-10.7,12.5l-1.8,10.7
		l10.7-12.5l8.9-24.9l8.9-8.9l3.6-10.7l-16,5.4l3.6-7.1h3.6l3.6,1.8l3.6-10.7l-7.1-5.4h12.5l-3.6,14.3l26.7-44.6h-7.1l-10.7,21.4
		h-3.6l3.6-16l8.9-5.3l-5.3-7.1h7.1v-8.9h7.1l-3.6-5.3l10.7-23.2l5.3,1.8l7.1,7.1l8.9-16v-8.9L4339.7,803.2z M4140.1,1099h7.1v-7.1
		h-1.8L4140.1,1099z M4166.8,958.2l-5.4-5.3h8.9v-5.4l-7.1,3.6V944h8.9l10.7-23.2h-1.8V919l7.1-5.4l5.3-23.2v-5.4l7.1,5.4l-3.6-10.7
		h8.9v-5.4l1.8-5.3v-3.6l-1.8-1.8l16-12.5l-65.9,139l-5.4,5.4l7.1-24.9v-3.6L4166.8,958.2z M4159.7,1143.6l-1.8-3.6h-5.3v12.5
		l7.1-5.4V1143.6z M4154.4,1419.8l1.8,3.6l3.6-1.8L4154.4,1419.8z M4161.5,1020.6l3.6-10.7l-5.4,3.6v7.1H4161.5z M4182.9,1097.2
		l-1.8-3.6l-5.3,14.3l7.1-7.1V1097.2z M4202.5,1443v1.8h-8.9l-8.9-7.1L4202.5,1443z M4231,828.1l-1.8-1.8v-1.8l5.3-3.6v7.1
		l-10.7,17.8h-1.8l-5.3-7.1l5.3-3.6v5.3l-1.8,3.6L4231,828.1z M4225.6,1006.3l3.6-1.8l-3.6,10.7l-3.6-1.8L4225.6,1006.3z
		 M4222.1,1416.2l12.5-3.6l-1.8-1.8L4222.1,1416.2z M4245.2,961.8h7.1l-14.3,33.9l-7.1,3.6v-8.9h7.1l-1.8-3.6v-5.3l1.8-7.1v-7.1
		l3.6,1.8h5.3l-1.8-3.6V961.8z M4232.8,901.2l8.9,8.9h8.9l-1.8-5.4v-3.6l5.3,3.6l8.9-12.5l5.3,5.4v-21.4l3.6-1.8h3.6l1.8-7.1
		l16-17.8l1.8-12.5l5.4,1.8l-3.6-10.7h-5.3v10.7l-14.3,14.3v-7.1l-17.8,12.5l-17.8,21.4L4232.8,901.2z M4247,794.3h5.4v5.3
		l-14.3,14.3L4247,794.3z M4247,828.1v8.9h-3.6l-3.6-5.4L4247,828.1z M4247,785.3l5.4-3.6l5.3,7.1h-1.8l-1.8,1.8L4247,785.3z
		 M4252.4,899.4v-7.1l7.1-3.6l-5.4,10.7H4252.4z M4270.2,760.4v3.6l-7.1,10.7l3.6-10.7l-7.1-3.6H4270.2z M4272,756.8l-3.6-7.1
		l3.6-3.6h8.9l-7.1,10.7H4272z M4270.2,867.3v-8.9l7.1-3.6l-5.3,12.5H4270.2z M4279.1,821l7.1,8.9h1.8l14.3-26.7l-10.7,3.6
		l-12.5,12.5V821z M4296.9,792.5l8.9,5.3l1.8-5.3l12.5-14.3l-3.6,7.1l3.6,7.1l8.9-7.1l-1.8-7.1v-8.9l3.6,1.8h3.6l1.8-7.1v-7.1
		l16-12.5l-8.9-3.6l-1.8,3.6v3.6l-12.5-7.1l-10.7,16v5.4h-5.3L4296.9,792.5z M4305.8,808.5l-7.1,8.9v5.4h5.4l5.3-7.1L4305.8,808.5z
		 M4304.1,740.8l7.1-8.9v-5.3l-7.1,8.9V740.8z M4309.4,1316.4l1.8-1.8h3.6l10.7-10.7l-3.6-3.6L4309.4,1316.4z M4321.9,845.9l1.8-5.4
		v-5.3l-7.1,8.9v5.3L4321.9,845.9z M4320.1,1289.7l14.3-5.4v-1.8L4320.1,1289.7z M4321.9,683.7v3.6h3.6l3.6-1.8v-1.8H4321.9z
		 M4330.8,758.6v-7.1l7.1-3.6v7.1L4330.8,758.6z M4348.6,1284.4v8.9h-7.1v-3.6L4348.6,1284.4z M4343.3,739l12.5-3.6l-3.6-3.6
		L4343.3,739z M4345.1,1264.7v1.8h10.7v-3.6l-1.8-5.3L4345.1,1264.7z M4378.9,715.8l-8.9,5.3l-7.1-17.8l19.6-32.1h-3.6l-3.6-1.8h1.8
		v7.1h-1.8l-14.3,10.7l-10.7,16l3.6,10.7l-7.1,3.6v5.3l16-16l-5.3,14.3l7.1-3.6l3.6,7.1l-21.4,33.9l3.6,7.1l8.9-12.5l5.4,3.6l8.9-16
		h-7.1l8.9-8.9h-5.4l7.1-7.1L4378.9,715.8z M4359.3,781.8l-1.8-1.8v-1.8l-10.7,14.3L4359.3,781.8z M4352.2,1282.6l3.6,1.8v1.8
		l-5.4,1.8v-5.3H4352.2z M4362.9,1284.4l3.6,3.6l-10.7,7.1L4362.9,1284.4z M4357.5,1255.8l10.7-3.6l8.9-7.1v-7.1L4357.5,1255.8z
		 M4364.7,1271.9l-1.8-5.4l3.6,5.4v1.8l-1.8,1.8V1271.9z M4375.4,1275.4l-5.4,8.9h-1.8v-1.8L4375.4,1275.4z M4387.8,712.3l-7.1,8.9
		v5.4l7.1-8.9V712.3z M4411,669.5v-1.8l-1.8-1.8h1.8h-3.6l-25,35.6v7.1h7.1l8.9-1.8l-5.4,8.9l10.7-12.5l1.8-7.1l-7.1-5.4l1.8-12.5
		l5.3,5.3L4411,669.5z M4382.5,674.8l3.6,10.7l7.1-3.6v-16l-3.6,1.8l1.8,1.8L4382.5,674.8z M4391.4,651.7l1.8-5.3l-7.1,3.6v3.6
		L4391.4,651.7z M4393.2,694.5h5.4v7.1l-10.7-1.8L4393.2,694.5z M4393.2,564.3h-1.8l21.4-33.9l-1.8-3.6v-3.6l3.6-1.8h5.4l-1.8,5.4
		L4393.2,564.3z M4398.5,642.8v3.6l1.8-3.6H4398.5z M4403.9,1214.9v3.6h3.6l3.6-5.4h-5.4L4403.9,1214.9z M4412.8,1172.1v5.3l3.6-5.3
		l33.9-30.3h-3.6L4412.8,1172.1z M4416.3,662.4h1.8l1.8-5.3h-3.6V662.4z M4423.5,664.2h-7.1v7.1h5.4l1.8-3.6V664.2z M4427,1188.1
		v-7.1l-7.1,3.6v3.6H4427z M4425.2,642.8l1.8-3.6l-5.3,3.6H4425.2z M4434.2,1197l-12.5,10.7l8.9-14.3L4434.2,1197z M4427,500.2h8.9
		v5.4l-5.3,3.6L4427,500.2z M4427,635.6l5.4,1.8l1.8-7.1l-5.3,1.8L4427,635.6z M4452,1179.2h-3.6l-3.6,1.8v-3.6l8.9-3.6l1.8-3.6
		v-3.6l10.7-1.8l-3.6-3.6l17.8-14.3v1.8l1.8,1.8L4452,1179.2z M4450.2,1154.3v7.1l10.7-10.7h-8.9L4450.2,1154.3z M4500.1,1184.6h1.8
		l-46.3,42.8v-1.8l42.8-42.8L4500.1,1184.6z M4462.7,1129.3h5.3l3.6-5.4h-5.4L4462.7,1129.3z M4480.5,1143.6v-3.6l1.8,1.8h3.6
		l7.1-7.1l-7.1,12.5h-1.8L4480.5,1143.6z M4482.3,1109.7v1.8h1.8l23.2-21.4v-1.8L4482.3,1109.7z M4487.6,1132.9l-1.8,1.8l-3.6-3.6
		l5.3-7.1h3.6l14.3-17.8h3.6v3.6l-12.5,10.7l-3.6,8.9v1.8l1.8,1.8H4487.6z M4576.7,603.6l-7.1-1.8h-8.9l-1.8-1.8h-1.8l-1.8,5.3
		l-17.8,3.6h-5.4l-3.6-1.8v1.8l1.8,3.6l-5.3-5.4L4493,616l-7.1,8.9l89.1-17.8l1.8-1.8V603.6z M4498.3,632.1l-5.3-1.8v5.4l1.8-1.8
		h3.6V632.1z M4534,592.9l-7.1-1.8h-8.9l-12.5,7.1l-8.9,10.7h3.6l1.8-5.3l7.1-1.8h7.1l21.4-7.1l37.4-5.3h10.7l8.9-5.4l-8.9-1.8h-7.1
		l-25,7.1l-5.3-1.8L4534,592.9z M4509,1088.3l14.3-14.3h-1.8l-1.8-1.8L4509,1088.3z M4519.7,576.8l-1.8,3.6h3.6l3.6-3.6H4519.7z
		 M4615.9,594.6h-8.9l-8.9-1.8l-14.3,5.3h-12.5l-1.8,1.8l16,3.6l3.6-3.6v1.8l1.8,1.8l10.7-5.4v1.8l1.8,1.8L4615.9,594.6z
		 M4630.2,580.4l-7.1-1.8h-7.1l-19.6,3.6l-1.8,3.6l1.8,1.8h3.6l8.9-5.3l5.3,3.6L4630.2,580.4z M4674.8,594.6l-5.4-1.8h-5.3
		l-19.6-3.6l-17.8,5.3h5.4l3.6,1.8l1.8-1.8v-1.8l10.7,3.6h12.5l12.5,1.8L4674.8,594.6z"/>
	
		<radialGradient id="SVGID_00000083799423006239723010000007412533984693354126_" cx="-1160.348" cy="2164.4365" r="9882.1777" gradientUnits="userSpaceOnUse">
		<stop  offset="0" style="stop-color:#FF00FF"/>
		<stop  offset="1" style="stop-color:#00FFFF"/>
	</radialGradient>
	<path style="fill:url(#SVGID_00000083799423006239723010000007412533984693354126_);" d="M4405.6,1327.1l-7.1-8.9l12.5-35.6
		l19.6-30.3l16-46.3l3.6-1.8l14.3-35.7h1.8l8.9-19.6l-3.6-1.8l7.1-7.1l7.1-16v-1.8l8.9-16l-1.8-7.1l3.6-3.6l1.8,1.8l39.2-82
		l55.2-99.8l44.6-96.2l5.3-7.1l19.6-42.8l8.9-30.3l37.4-48.1l28.5-14.3l23.2,5.3l21.4,8.9l25,5.4l21.4,1.8l12.5,28.5L4828,764
		l1.8,8.9l-35.7,62.4l-10.7,23.2h-7.1l-7.1-1.8v7.1l-1.8,7.1l-8.9-3.6l-28.5,58.8l-17.8,12.5l-8.9,28.5h7.1l-25,28.5l5.4,3.6
		l-21.4,35.7l3.6-12.5l-10.7,1.8l7.1-23.2l-10.7,12.5l-21.4,3.6l-10.7,12.5l1.8,7.1l19.6-7.1l-1.8,10.7v10.7l8.9-19.6l1.8,5.4
		l-3.6,24.9l12.5-8.9L4730,976L4842.3,862l49.9-41l46.3-7.1l-7.1,10.7l-16,5.3v5.4l-1.8,7.1l46.3-10.7h8.9l8.9,1.8v8.9l-1.8,8.9
		l17.8-3.6l25,16l5.3-1.8l5.4,14.3l10.7,41l-1.8,7.1v7.1l-8.9,10.7l1.8,12.5v14.3l10.7-3.6v7.1l-1.8,7.1l-8.9-3.6l-3.6,37.4l7.1,5.3
		l10.7-14.3l-3.6,30.3l-10.7-10.7l1.8,5.3v5.4l19.6,12.5l16-8.9l110.5-82L5327,819.2l32.1-33.9l8.9,5.4l-32.1,46.3l-46.3,48.1
		l-28.5,23.2l-33.9,37.4l-87.3,69.5l5.4,3.6l60.6-48.1l25-8.9l7.1-10.7l39.2-28.5l12.5-1.8l-1.8-8.9l24.9-17.8l-3.6,14.3l-7.1,1.8
		v19.6l-10.7-3.6v5.4l-1.8,7.1l-49.9,46.3l-5.3,14.3l16-12.5l7.1-1.8h5.4l-21.4,16l1.8,8.9l-12.5,1.8l-1.8,7.1v5.4l-51.7,41
		l-39.2,51.7l-58.8,8.9l3.6,8.9l-12.5,1.8l-42.8-24.9h-8.9l-41-48.1l-7.1-3.6l-46.3-58.8l-3.6-17.8l-8.9-3.6V960l-8.9,1.8l1.8,14.3
		l-8.9-3.6v7.1l-19.6,12.5l-1.8-7.1l16-12.5h5.3l-1.8-8.9l19.6-14.3l-1.8-10.7h-8.9l-8.9,16l-7.1-1.8h-8.9v8.9l-1.8,8.9l-21.4,3.6
		l-8.9,17.8l-16,7.1l8.9,10.7l-10.7-5.3l-16,30.3l-19.6,7.1l-7.1,5.4l-1.8-3.6l14.3-21.4l5.3,5.4l3.6-17.8l12.5-10.7h5.3l48.1-49.9
		l26.7-32.1l7.1-1.8l-1.8-14.3l-24.9,17.8l-7.1-5.4l5.3,12.5h-21.4l12.5,12.5l-12.5,7.1h-5.3l3.6-8.9l-8.9,1.8l-16,23.2l-3.6,16
		l-7.1-1.8h-7.1l-19.6,24.9l8.9,7.1l-8.9,1.8l-10.7-17.8l17.8-19.6l5.3-1.8h5.4l-1.8-10.7l16-14.3l-5.3-7.1l16-3.6l30.3-30.3
		l17.8-24.9l8.9-17.8l-16,8.9l-35.6,32.1l-42.8,46.3l-17.8,5.3l1.8,8.9l-62.4,67.7l-60.6,83.8l7.1,3.6l-16,3.6l14.3,10.7l12.5-1.8
		l-1.8-8.9l-8.9,7.1l3.6-10.7l7.1,1.8h7.1l3.6-7.1l-12.5-3.6l16-3.6l-7.1-7.1l10.7-3.6h7.1l-1.8-10.7l12.5-17.8l7.1,5.3l-1.8-12.5
		l7.1,5.3l8.9-10.7l8.9,10.7l-8.9,3.6l5.3,7.1h-7.1l-8.9,1.8l-3.6,21.4l-16,1.8l-7.1,14.3l1.8,3.6v3.6l1.8,3.6v5.4l-10.7-10.7
		l-25,35.6l-16-3.6l7.1-14.3l-10.7-7.1l-24.9,35.6l-3.6,1.8h-3.6l-12.5,21.4l28.5,25l-17.8,32.1l10.7-1.8l1.8,8.9h-5.3l-7.1-7.1
		l-12.5,28.5h8.9l1.8-7.1v-7.1l7.1-1.8h5.3l-8.9,7.1l-7.1,21.4l-3.6,1.8h-5.3l-1.8-8.9l-44.6,89.1h5.4l5.3-1.8l3.6,19.6L4550,1418
		l-17.8,12.5l7.1,7.1l-14.3,14.3l-12.5-12.5l-5.4,1.8l-5.3,14.3l-17.8-3.6l5.4-21.4l-12.5-7.1l-25-30.3l-12.5,5.4v-17.8l-26.7-37.4
		l-12.5-7.1L4405.6,1327.1z M4460.9,1321.8l14.3-8.9l-1.8-1.8h-3.6l3.6-17.8l-14.3,26.7L4460.9,1321.8z M4475.1,1289.7v1.8l23.2-16
		l-7.1-3.6l5.3-10.7l-3.6-7.1l-7.1,3.6l-12.5,30.3L4475.1,1289.7z M4489.4,1298.6l3.6,7.1l8.9-3.6v-8.9L4489.4,1298.6z
		 M4505.4,1243.4l19.6-39.2l5.4-1.8l7.1,12.5l-17.8,10.7l3.6,12.5v-12.5l14.3,3.6l10.7-10.7v-7.1l-1.8-7.1l-5.3,8.9l-5.4-8.9
		l5.4-3.6h1.8l-5.4-3.6h-7.1v-3.6l-5.4-1.8l-23.2,46.3L4505.4,1243.4z M4510.8,1318.2l3.6-1.8l3.6-21.4l-8.9,19.6L4510.8,1318.2z
		 M4576.7,1145.3l12.5-16l-3.6,21.4l23.2-25v-7.1l17.8-26.7l-7.1-7.1l10.7-1.8l-7.1-5.3l12.5-12.5v-19.6l-8.9,1.8l-23.2,26.7
		l5.4,3.6l-32.1,41l-3.6,28.5L4576.7,1145.3z M4589.2,1298.6l1.8-3.6l7.1,7.1L4589.2,1298.6z M4612.4,1090.1l8.9-1.8l-3.6,10.7h-3.6
		L4612.4,1090.1z M4614.1,1181l5.4-5.3l1.8,5.3v3.6l-8.9,1.8L4614.1,1181z M4633.8,1181l14.3-8.9l1.8,10.7l8.9-8.9l-7.1,12.5h-3.6
		L4633.8,1181z M4653.4,1225.5l23.2-39.2l25-26.7l-7.1,12.5l12.5-3.6l3.6-10.7l-16-1.8l5.4-5.3l-10.7-12.5l17.8,7.1l10.7,12.5
		l-30.3,57H4673l7.1,10.7l-8.9-5.4l-14.3,3.6v12.5l-14.3,12.5L4653.4,1225.5z M4649.8,1157.8h8.9l-3.6,8.9h-3.6L4649.8,1157.8z
		 M4655.1,1189.9l10.7-1.8l-3.6,10.7h-5.3L4655.1,1189.9z M4730,1100.8l35.7-46.3h7.1l1.8,8.9l-23.2,17.8l-19.6,24.9L4730,1100.8z
		 M4731.8,1136.4l23.2-32.1l-19.6,33.9h-3.6V1136.4z M4742.5,1038.4l12.5,3.6v-3.6l-1.8-1.8v-8.9l16,8.9l-3.6,8.9l-23.2,3.6l7.1,7.1
		l-3.6,1.8l-7.1-8.9L4742.5,1038.4z M4760.3,1027.7l8.9-12.5l-8.9-5.4l19.6,3.6l-8.9-10.7h8.9l1.8,8.9l-16,16H4760.3z
		 M4779.9,1066.9l-1.8,5.3l-5.4,5.4l-1.8-5.4v-3.6L4779.9,1066.9z M4776.3,847.7v3.6l1.8,5.4l7.1-7.1l-1.8-8.9L4776.3,847.7z
		 M4779.9,1093.7l3.6-8.9l8.9-1.8l-3.6,10.7H4779.9z M4808.4,993.9l8.9-12.5l7.1,3.6L4808.4,993.9z M4813.8,1052.7l25-23.2l-1.8,5.4
		l-26.7,28.5L4813.8,1052.7z M4856.5,1002.8l12.5-8.9h5.3l-19.6,21.4l5.4,10.7l-8.9-5.4l-10.7,12.5L4856.5,1002.8z M4888.6,945.7
		l10.7-1.8l-1.8-3.6V935h-5.3L4888.6,945.7z M4949.2,815.6l14.3-5.4l-5.3,7.1l-16,3.6L4949.2,815.6z"/>
	
		<radialGradient id="SVGID_00000060711618108880704680000004015514268143676301_" cx="-1160.348" cy="2164.4365" r="9882.1777" gradientUnits="userSpaceOnUse">
		<stop  offset="0" style="stop-color:#FF00FF"/>
		<stop  offset="1" style="stop-color:#00FFFF"/>
	</radialGradient>
	<path style="fill:url(#SVGID_00000060711618108880704680000004015514268143676301_);" d="M5161.3,1200.6l19.6-90.9l7.1-23.2
		l42.8-105.1l35.7-73.1c5.9-11.9,9.8-20.8,11.6-26.7c1.8-5.9,3.6-11.6,5.4-16.9c1.8-5.3,4.2-11,7.1-16.9c2.9-5.9,8-14.3,15.1-24.9
		l30.3-53.5l8.9-25h10.7l5.4-16l71.3-8.9l46.3,12.5l19.6,19.6l7.1,17.8h7.1l3.6,16l-23.2,39.2c-8.3,11.9-15.1,20.8-20.5,26.7
		c-5.4,6-9.8,11-13.4,15.1c-3.6,4.2-7.4,9.5-11.6,16c-4.2,6.5-9.8,16.9-16.9,31.2l-12.5,19.6v5.4l-14.3,19.6l5.3,7.1h-7.1
		l-10.7,30.3h-1.8l-3.6-1.8l-8.9,14.3l1.8,5.4v5.3l-19.6,21.4v12.5l-5.4,12.5l5.4,3.6l-26.7,37.4l-8.9,39.2l-24.9,64.2l-10.7,90.9
		l5.3,1.8h5.4l16-16l19.6-1.8l-3.6,8.9l8.9,3.6l292.3-381.4l67.7-99.8l1.8-8.9l32.1-65.9l-3.6-5.4l25-32.1l35.6-14.3l17.8,1.8h17.8
		l49.9,12.5l32.1,49.9l-5.3,16l-5.4,5.3l-42.8,71.3l-30.3,64.2h-5.3l5.3-8.9l-12.5,7.1l1.8,1.8v3.6l-21.4,44.6l1.8,10.7h-7.1
		l-8.9,30.3l-8.9,1.8l5.4,7.1l-28.5,73.1l1.8,1.8l-7.1,16l-14.3,58.8h-1.8v1.8l-7.1,17.8l-1.8,16l3.6,3.6l-1.8,1.8l-3.6-1.8
		l-3.6,23.2l-5.4,5.4l1.8,14.3l-1.8,21.4l-3.6,16l5.3,5.4l26.7-3.6l41-37.4l14.3-3.6l-1.8-7.1l46.3-42.8l26.7-32.1l10.7-8.9
		l5.3-10.7l14.3-10.7l8.9-12.5l35.7-32.1l23.2-28.5v3.6h3.6l8.9-8.9v3.6l1.8,3.6l-1.8,3.6l-5.3-1.8l-1.8,12.5L5949,1083l-5.3,12.5
		l-7.1,7.1l-8.9,16l-7.1,7.1l-1.8-8.9l-3.6,5.4l-3.6,12.5l-7.1,1.8l-5.4,14.3l-12.5,5.3l-5.3,16l-7.1,8.9h1.8l32.1-33.9l1.8,5.4
		l23.2-28.5l7.1-3.6l3.6-8.9l8.9-7.1h5.4l17.8-26.7l12.5-12.5l14.3-8.9l16-21.4l41-37.4l5.3-10.7l16-10.7l53.5-53.5l12.5-19.6
		l8.9-1.8l-1.8,16l-42.8,48.1l5.4-1.8l5.3,3.6l-24.9,25l-7.1-1.8l-17.8,16l3.6,1.8h1.8l1.8,1.8l-3.6,5.4l3.6,1.8l51.7-48.1h1.8
		l-5.3,3.6l-7.1,14.3l-60.6,73.1l3.6,3.6l3.6-3.6l7.1-1.8l-10.7,17.8l-10.7,5.4v-8.9l5.3-7.1l-1.8-1.8l-8.9,10.7l-10.7,7.1l1.8,3.6
		l3.6-1.8l8.9,1.8l-1.8,5.4l-21.4,30.3l-23.2,24.9l-7.1,14.3l-37.4,44.6l-19.6,19.6l-5.3,8.9l-10.7,10.7l-3.6,10.7l-7.1,5.4v8.9
		l-7.1,1.8l-8.9,12.5l-16,16l-28.5,33.9l-17.8,1.8l-3.6,7.1l-23.2,12.5l-12.5,10.7l-48.1,8.9l-10.7,16l-17.8-1.8l-3.6,1.8
		l-28.5-14.3l-24.9-5.4l-3.6-7.1l-19.6-10.7l-8.9-10.7l-7.1-3.6l-1.8-10.7l-5.3-12.5l-14.3-7.1l-8.9-10.7l-19.6-7.1l-3.6-10.7
		l7.1-80.2l8.9-35.6l-1.8-7.1l3.6-8.9l12.5-60.6l-41,53.5v7.1l10.7-12.5v5.4l-89.1,124.7l-57,73.1l-33.9,35.7l-14.3,10.7l-32.1,17.8
		h-80.2l-14.3-1.8l-49.9-37.4l-35.6-39.2l-7.1-58.8L5161.3,1200.6z M5184.4,1284.4l3.6-21.4l-3.6-23.2l-3.6,21.4L5184.4,1284.4z
		 M5196.9,1225.5v-10.7l16-78.4l-3.6-7.1l5.4-3.6l16-24.9v-19.6l-7.1-3.6v12.5l1.8,3.6l-8.9,1.8l5.4,7.1h-5.4l-14.3,37.4l-12.5,44.6
		l-5.4,42.8v5.3L5196.9,1225.5z M5229,1063.4l1.8,7.1v5.3h7.1l3.6-14.3l-8.9-8.9l7.1,16L5229,1063.4z M5234.4,1264.7l7.1,7.1
		l3.6-1.8l-1.8-7.1L5234.4,1264.7z M5248.6,1250.5l-5.3,42.8l3.6,24.9l7.1-33.9l3.6,12.5l7.1-26.7l-3.6-26.7l-12.5-5.3l5.4-30.3
		l7.1-1.8l-1.8-14.3l8.9-17.8l-3.6,26.7h7.1l7.1,14.3l-5.4-25h8.9l8.9-37.4l-5.3-3.6l19.6-42.8l1.8,5.4v7.1l14.3-23.2v-5.3h-8.9
		l7.1,8.9l-10.7-5.4l10.7-17.8l3.6-14.3l8.9-12.5l-7.1-26.7h8.9l8.9,1.8l5.3-10.7v-5.4l-1.8-3.6l-14.3,17.8l-1.8-12.5l10.7-10.7
		l7.1,1.8h5.4l12.5-24.9l-19.6,23.2l-1.8-12.5h-5.3l-25,32.1l1.8,12.5v10.7h-5.3l-7.1,1.8l5.4,17.8l-14.3,1.8l5.4,8.9h3.6l3.6-1.8
		l12.5-28.5l7.1-10.7l-3.6,21.4l-7.1,8.9l-16,28.5l3.6-16l-17.8,5.4l-10.7,17.8l1.8,3.6v3.6l7.1-7.1l1.8,8.9l10.7-5.3l1.8,5.3
		l-14.3,23.2v-8.9l1.8-8.9h-5.4l-8.9,16l3.6-10.7h-7.1l-14.3,46.3h3.6l-8.9,21.4l5.4,19.6l-10.7-5.4l3.6,23.2l-10.7,21.4l8.9-1.8
		l-8.9,16L5248.6,1250.5z M5250.4,1341.4h3.6l3.6-8.9l-8.9-3.6L5250.4,1341.4z M5254,1305.7v7.1l5.3-5.4l-7.1-10.7L5254,1305.7z
		 M5255.7,1227.3l5.3,8.9l7.1-12.5v8.9l8.9-10.7l-10.7-14.3l-3.6,19.6H5255.7z M5278.9,1166.7l5.3-7.1v7.1l-3.6,10.7l-12.5-8.9
		l-1.8-10.7L5278.9,1166.7z M5284.2,1129.3l-5.3,28.5h-3.6l-1.8-10.7L5284.2,1129.3z M5346.6,967.1v5.4l16-12.5l-1.8-5.4l3.6-16
		L5346.6,967.1z M5380.5,963.6l-1.8-7.1l3.6-16l-17.8,28.5v7.1L5380.5,963.6z M5391.2,927.9l12.5-1.8V919l-12.5,1.8V927.9z
		 M5573,1134.6v-7.1l7.1-5.3l-3.6,12.5H5573z M5589,1232.7h3.6l1.8-10.7l-1.8-10.7h-3.6l3.6,8.9L5589,1232.7z M5594.4,1188.1
		l33.9-73.1l-1.8,1.8l-1.8-8.9l12.5-16v-1.8l-12.5,1.8l19.6-17.8l5.4-16l-5.4,1.8l-7.1,14.3v-1.8l-1.8-3.6l14.3-37.4l5.3-3.6
		l-5.3-10.7l12.5-7.1l-1.8-5.3v-3.6l-32.1,46.3l-21.4,55.2l5.3,5.4l-8.9,24.9l3.6,8.9l-8.9,23.2L5594.4,1188.1z M5606.8,988.5
		l21.4-30.3l19.6-17.8v-7.1l-12.5,1.8v5.4l-7.1,17.8l-23.2,28.5v1.8H5606.8z M5610.4,1270.1l5.4,1.8l12.5-57l3.6-25l14.3-35.6
		l-3.6-3.6l-17.8,19.6l-7.1,16h5.3v1.8l-5.3,3.6v5.4l-3.6,23.2v35.6l-3.6,1.8l-1.8,7.1L5610.4,1270.1z M5626.4,1136.4l8.9-5.3v-8.9
		l-8.9,12.5V1136.4z M5653.2,1066.9l-1.8-8.9l-1.8,10.7L5653.2,1066.9z M5656.7,1131.1l3.6-8.9l-5.4,5.3L5656.7,1131.1z
		 M5663.9,958.2v7.1l5.4-5.3l-7.1-10.7L5663.9,958.2z M5710.2,1025.9l8.9-16l14.3,5.4l3.6-1.8v-10.7l-7.1,1.8h-7.1l-8.9-10.7
		l-5.4,21.4v-7.1l-1.8-8.9l-3.6,5.4L5710.2,1025.9z M5703.1,1205.9l1.8,1.8l5.4-17.8h-5.4L5703.1,1205.9z M5728,1017l-5.3-1.8
		l-1.8,5.3L5728,1017z M5728,977.8l8.9-14.3l-8.9,1.8l-3.6,12.5H5728z M5731.6,942.2l12.5,16l-3.6,14.3l14.3-16l-5.4-10.7l-7.1,5.4
		l-1.8-8.9H5731.6z M5736.9,979.6l1.8,12.5h8.9l-7.1-12.5H5736.9z M5751.2,1008.1v-8.9l-8.9,12.5L5751.2,1008.1z M5754.8,993.9
		l14.3-32.1l-8.9,5.3l-7.1,26.7H5754.8z M5810,933.3l8.9-7.1l-10.7,23.2l-3.6,1.8L5810,933.3z M5906.2,1186.3l1.8,5.3l7.1-10.7
		l-7.1,1.8L5906.2,1186.3z M5938.3,1154.3l1.8,1.8l35.7-33.9l-1.8-5.4l-32.1,30.3L5938.3,1154.3z M5974,1045.5l3.6-1.8l-1.8-1.8
		l1.8-7.1l17.8-21.4l-1.8,7.1l12.5-12.5l3.6,1.8l1.8,7.1l-23.2,16l-5.4,10.7l-5.3,5.4L5974,1045.5z M5979.3,1107.9l3.6,1.8h1.8
		l48.1-44.6l-3.6-7.1h3.6l8.9-5.4l1.8-3.6v-3.6l8.9-5.4l3.6-7.1l-5.3-1.8l-8.9,7.1l-5.4,12.5l-10.7,5.4v8.9l-5.3-1.8h-3.6
		L5979.3,1107.9z M6016.7,1113.3l19.6-23.2l-7.1-3.6v7.1l-10.7,10.7l-16,21.4L6016.7,1113.3z M6007.8,997.4l8.9-1.8l3.6,1.8
		l10.7-10.7l3.6,1.8v1.8l-7.1,8.9l-16,5.4h-3.6v-1.8l-3.6,3.6L6007.8,997.4z M6057.7,1025.9l12.5-5.4l1.8-7.1l-3.6-1.8l-5.3,8.9
		l-7.1,1.8L6057.7,1025.9z M6057.7,952.9l7.1-10.7l33.9-35.6l8.9-12.5l10.7-8.9l44.6-51.7h3.6v3.6l-8.9,16l-10.7,12.5l-10.7,19.6
		l-30.3,32.1l-17.8,5.3v10.7l-14.3,7.1l1.8,7.1l-7.1,5.4l-7.1-1.8L6057.7,952.9z M6159.3,888.7l8.9-7.1h1.8l-14.3,16L6159.3,888.7z"
		/>
	
		<radialGradient id="SVGID_00000003089397159266255140000003459204743312396474_" cx="-1160.348" cy="2164.4365" r="9882.1777" gradientUnits="userSpaceOnUse">
		<stop  offset="0" style="stop-color:#FF00FF"/>
		<stop  offset="1" style="stop-color:#00FFFF"/>
	</radialGradient>
	<path style="fill:url(#SVGID_00000003089397159266255140000003459204743312396474_);" d="M5979.3,1312.9l-1.8-30.3v-30.3l10.7-58.8
		l19.6-74.9l30.3-85.6l33.9-74.9l32.1-62.4l48.1-110.5l5.4-28.5l7.1-7.1l-1.8-12.5l17.8-5.4l28.5-12.5h24.9l39.2,19.6l14.3,10.7V764
		l12.5-17.8l7.1,25v10.7l-28.5,71.3l-17.8,28.5l-5.4,3.6l5.4,10.7l-7.1-5.4l-8.9,12.5l5.4-1.8l-14.3,17.8l-17.8,35.6h1.8l-17.8,37.4
		l-1.8-1.8l-5.4,10.7l1.8,5.4l-17.8,26.7l-33.9,73.1v5.4l1.8,3.6l-14.3,19.6v5.4l1.8,3.6v7.1l-1.8,5.3h-3.6l-3.6-1.8l-12.5,33.9v8.9
		l1.8,10.7v7.1l-5.4-3.6l-12.5,17.8v7.1l-14.3,67.7l1.8,8.9l-5.4,3.6v16l1.8,16l7.1-1.8v-3.6l1.8-5.4l7.1,3.6l7.1-12.5v8.9l5.3-10.7
		h7.1l30.3-37.4l3.6,1.8v-7.1l7.1-7.1l65.9-87.3l10.7-17.8h5.4l-89.1,119.4l3.6,1.8l124.8-156.8v-5.3l53.5-64.2v-7.1l16-7.1V1042
		h10.7l-1.8-5.3l16-21.4l1.8,5.3l7.1-14.3l-3.6-8.9l10.7,3.6l26.7-37.4v5.3l3.6-16l3.6,1.8h1.8l17.8-32.1l5.3-5.3h-5.3l-10.7-10.7
		l23.2-41l-3.6-5.4l-7.1-51.7v-19.6l8.9-28.5l19.6-42.8l-3.6-7.1h10.7l19.6-12.5l19.6,3.6l5.3-3.6l8.9,17.8l16,7.1v7.1l14.3,17.8
		v7.1l3.6,10.7v12.5l-1.8,12.5v16l-1.8,16l-17.8,69.5l28.5-5.3l96.2-58.8l7.1,3.6v14.3l-5.4,5.3l-8.9,30.3l-17.8,14.3l3.6,3.6
		l-8.9,23.2l-23.2,23.2l3.6,7.1h14.3l-8.9,5.3l-42.8,7.1l-55.2-8.9l-10.7-7.1h-3.6l-5.3,23.2l-14.3,10.7l5.3-1.8l-12.5,23.2
		l-17.8,19.6l-30.3,46.3l-3.6-1.8h-3.6v5.3l1.8,3.6l-60.6,80.2l1.8,7.1h-3.6l-3.6-1.8l-30.3,42.8l-8.9,1.8v8.9l-17.8,32.1
		l-39.2,46.3l-10.7,19.6l-51.7,65.9l5.3,5.4l-7.1-3.6l-26.7,32.1l5.4,5.4l-3.6-1.8h-3.6l-42.8,28.5l-10.7,1.8h-10.7l-28.5-10.7
		l-14.3-8.9l-39.2-33.9l-10.7-21.4l-30.3-23.2L5979.3,1312.9z M5997.1,1275.4l8.9,23.2l-8.9-8.9l8.9,26.7v3.6l3.6-1.8l10.7-65.9
		l3.6,3.6l7.1-17.8l-5.4-25h7.1l-5.3-8.9l5.3,5.3l3.6-1.8l8.9-24.9l-5.3,5.3l-3.6-19.6v-7.1l8.9,8.9l-1.8,5.4v5.3l7.1-19.6
		l-8.9-10.7l7.1-14.3l7.1,7.1h-3.6l-5.4-1.8l1.8,5.3l5.3,3.6l16-37.4v-5.3l-7.1-1.8h-7.1l17.8-10.7l10.7-24.9l-3.6-14.3l7.1-10.7
		l-7.1,7.1l-1.8-8.9l16-26.7l1.8,7.1l-10.7,17.8l5.4,3.6l14.3-30.3l-8.9-3.6l3.6-12.5l8.9-19.6l19.6-32.1l-7.1-3.6l-26.7,41l7.1,5.3
		l-12.5,7.1l-10.7,21.4l-55.2,137.2l-19.6,80.2l3.6,7.1l-5.4,3.6v8.9l1.8,7.1l-7.1,1.8l7.1,14.3L5997.1,1275.4z M6055.9,1116.8
		l1.8,10.7h-1.8l-5.3-5.3L6055.9,1116.8z M6177.1,1421.6l3.6,3.6l-28.5,26.7l-19.6,7.1L6177.1,1421.6z M6207.4,1403.8h3.6l-3.6,7.1
		l-14.3,8.9L6207.4,1403.8z M6246.6,1359.2h3.6l-14.3,17.8h-3.6L6246.6,1359.2z M6260.9,1134.6l3.6,3.6l-19.6,26.7v-5.4
		L6260.9,1134.6z M6278.7,1118.6l-8.9,12.5h-1.8v-1.8L6278.7,1118.6z M6285.8,1102.6l21.4-21.4l-17.8,24.9h-3.6V1102.6z
		 M6300.1,1152.5l14.3-3.6l12.5-12.5l-5.4-12.5l14.3,3.6l16-30.3h10.7v-8.9l25-26.7v-5.3l41-51.7v-5.4l16-10.7v-5.3l16-23.2l1.8-7.1
		v-7.1h8.9l10.7-16v-5.4l5.4-5.3l-5.4-10.7l-5.3-5.4l-26.7,42.8l3.6,7.1L6432,960l1.8,10.7l-7.1,5.3l-46.3,62.4l-3.6,16h-7.1
		l-12.5,17.8v3.6l-8.9,21.4l-16,5.3l-16,32.1l-8.9,3.6L6300.1,1152.5z M6310.8,1072.3l10.7-14.3h3.6l-10.7,14.3H6310.8z
		 M6323.2,1054.4l21.4-26.7h3.6l-21.4,26.7H6323.2z M6358.9,1008.1l23.2-28.5v5.4l-23.2,28.5V1008.1z M6383.8,977.8l19.6-30.3h3.6
		l-5.3,10.7L6383.8,977.8z M6389.2,1036.6l7.1-5.4l-3.6,10.7h-3.6V1036.6z M6417.7,926.1l3.6,3.6l-16,16L6417.7,926.1z
		 M6426.6,990.3l-8.9,12.5h-7.1v-3.6L6426.6,990.3z M6417.7,1036.6h1.8l17.8-23.2l-19.6,21.4V1036.6z M6423.1,919l5.3-3.6v8.9
		l-5.3,1.8V919z M6440.9,968.9l-3.6,5.4v-7.1l-1.8-7.1L6440.9,968.9z M6448,1031.3l3.6-7.1l-3.6-3.6l-7.1,10.7H6448z M6448,917.2
		l8.9-10.7l-1.8-7.1l8.9-7.1l-5.4-12.5l-16,26.7L6448,917.2z M6497.9,944l7.1-3.6v-1.8l-3.6-3.6l-5.3,3.6L6497.9,944z"/>
	
		<radialGradient id="SVGID_00000149351195731390315860000010465840545382139527_" cx="-1160.348" cy="2164.4365" r="9882.1777" gradientUnits="userSpaceOnUse">
		<stop  offset="0" style="stop-color:#FF00FF"/>
		<stop  offset="1" style="stop-color:#00FFFF"/>
	</radialGradient>
	<path style="fill:url(#SVGID_00000149351195731390315860000010465840545382139527_);" d="M6524.6,1238l-7.1-55.2l7.1-44.6
		l-3.6-10.7l8.9-3.6v-16l1.8-14.3l17.8-46.3l26.7-57h8.9l5.3-21.4l21.4-30.3h7.1l3.6-17.8l53.5-65.9l78.4-85.5l8.9-3.6l49.9-44.6
		l51.7-33.9l26.7-12.5l28.5-3.6l10.7,5.4l57,16l21.4,10.7l1.8,3.6l-3.6,5.3l14.3,12.5l30.3,44.6l3.6,37.4l-8.9,12.5l-3.6,42.8
		l-12.5,25l3.6,3.6l-17.8,26.7l-33.9,30.3h-7.1l-7.1,1.8l-64.2,33.9l-58.8,23.2l-16-3.6l-14.3,5.3h-7.1l-8.9,1.8h-49.9v8.9l-8.9-5.3
		l-12.5,24.9l-32.1,3.6l-7.1,8.9v7.1l7.1-5.4l-51.7,78.4l-30.3,62.4l-16,80.2v12.5l14.3,3.6l49.9-10.7l-7.1,7.1l8.9,1.8l1.8-8.9
		l5.4,5.3l7.1-10.7l5.4,1.8h5.3l-14.3,5.4l3.6,1.8h3.6l24.9-7.1v-3.6l-1.8-3.6l28.5-8.9l-17.8,8.9l7.1,1.8l26.7-19.6l7.1,7.1
		l-3.6-10.7l3.6,1.8h3.6l46.3-28.5l46.3-17.8l203.2-119.4l41-28.5l5.3,1.8h5.4l-3.6-3.6l87.3-57l23.2-12.5v12.5l-16,19.6v3.6
		l1.8,5.4l-25,19.6l21.4-23.2v-1.8l-1.8-1.8l-105.2,71.3l-28.5,14.3l-98,58.8l-49.9,24.9l-3.6,5.3l-30.3,10.7v3.6l1.8,5.3l32.1-14.3
		l10.7,7.1v-7.1l3.6-8.9l14.3,7.1l14.3-25l10.7,7.1l12.5-17.8l10.7,5.4l17.8-16l3.6,5.4l14.3-12.5l-16,8.9l1.8-8.9l10.7-3.6h5.3
		l7.1,1.8v-3.6l10.7-17.8l16,7.1l35.6-23.2l-1.8,7.1l-65.9,42.8l3.6,8.9h-16l-17.8,7.1h3.6l3.6,1.8l-12.5,10.7h-10.7l-8.9,1.8
		l3.6,10.7l-8.9-7.1l-1.8,12.5l-7.1-5.3l-32.1,16l-1.8,7.1l-14.3,8.9l-7.1-1.8l-1.8,7.1l8.9,1.8l-23.2,16l3.6,12.5l-10.7,7.1
		l-8.9-1.8v3.6l-62.4,32.1l1.8,1.8v1.8l48.1-21.4h8.9l7.1,1.8l3.6-14.3l12.5-5.4l3.6,1.8h3.6l-7.1,7.1h3.6l35.6-21.4l-5.3-3.6
		l10.7,3.6l12.5-5.3l-3.6-8.9l-10.7,3.6l8.9-7.1l-7.1-1.8l-12.5,7.1l1.8-8.9h7.1l7.1-1.8l-3.6-7.1l8.9,1.8h7.1l-10.7,8.9l10.7,10.7
		l7.1-3.6l-16,12.5l-1.8,8.9l-17.8,10.7l-3.6-5.3l-21.4,23.2l-62.4,32.1l-23.2,14.3l-24.9,5.4l-7.1,12.5l-41,17.8l3.6,5.3l42.8-8.9
		l5.3,1.8l-7.1,7.1l-10.7-3.6l-39.2,16l-8.9-5.3l-1.8,12.5l-26.7,3.6l-37.4-7.1l-16-10.7l-46.3-10.7l-26.7-33.9l-5.3,3.6
		L6524.6,1238z M6528.2,1157.8h7.1l5.4-24.9l17.8-49.9l16-35.6v-5.4l-7.1,3.6l-23.2,44.6L6528.2,1157.8z M6581.7,1059.8l-3.6-5.4
		l-8.9,14.3L6581.7,1059.8z M6603,1147.1l7.1-14.3h-3.6l-5.4,1.8l-1.8,12.5H6603z M6612,1088.3l5.4-3.6l-1.8-5.3v-7.1L6612,1088.3z
		 M6629.8,1061.6l-1.8-5.3v-5.4l-3.6,19.6L6629.8,1061.6z M6633.3,1081.2l25-21.4l1.8-12.5l8.9-10.7l1.8-12.5l-12.5,16l-1.8,12.5
		l-21.4,23.2v1.8L6633.3,1081.2z M6656.5,1024.2l10.7-19.6l-8.9,5.3l-8.9-12.5l-1.8,14.3l8.9-3.6l-1.8,5.4l-17.8,24.9v7.1l-1.8,7.1
		L6656.5,1024.2z M6686.8,1045.5v-1.8l-5.3,1.8l-10.7,12.5v5.3L6686.8,1045.5z M6775.9,956.4v3.6l12.5-5.4h3.6l1.8,1.8l33.9-16
		l53.5-19.6l14.3-8.9l28.5-12.5l44.6-33.9l32.1-39.2l-3.6-3.6l8.9-8.9l-5.3-5.4l-19.6,1.8H6963l-35.6,17.8l-10.7-3.6l-1.8,5.3h-1.8
		l-7.1,7.1l8.9-7.1v5.4l-14.3,10.7l-14.3,14.3l-64.2,44.6L6775.9,956.4z M6850.8,1225.5l14.3-5.4l-8.9-1.8l-12.5,5.3L6850.8,1225.5z
		 M6863.3,1214.9l7.1,1.8l7.1-7.1l-7.1-1.8L6863.3,1214.9z M6872.2,1255.8v10.7l12.5-8.9L6872.2,1255.8z M6925.6,1220.2l7.1,1.8
		l-5.4,5.4h-3.6v-3.6L6925.6,1220.2z M6929.2,1216.6l1.8-7.1l23.2-5.3l3.6,5.3l-17.8,8.9l-5.3-1.8H6929.2z M6980.9,1204.2h3.6
		l5.4-1.8l-3.6,10.7l-10.7-1.8L6980.9,1204.2z M7005.8,1191.7l14.3-3.6l-12.5,10.7l-3.6-1.8L7005.8,1191.7z M7039.7,1170.3
		l26.7-17.8h5.4l-1.8,3.6l-49.9,30.3L7039.7,1170.3z M7048.6,1132.9l7.1-7.1l-7.1-1.8l-7.1,7.1L7048.6,1132.9z M7100.3,1106.1
		l7.1-10.7l8.9,3.6v-12.5l7.1,7.1l-5.3,7.1L7100.3,1106.1z"/>
	
		<radialGradient id="SVGID_00000021082042130775352510000016635297275595759763_" cx="-1160.348" cy="2164.4365" r="9882.1777" gradientUnits="userSpaceOnUse">
		<stop  offset="0" style="stop-color:#FF00FF"/>
		<stop  offset="1" style="stop-color:#00FFFF"/>
	</radialGradient>
	<path style="fill:url(#SVGID_00000021082042130775352510000016635297275595759763_);" d="M7086,1125.7l12.5-60.6l41-108.7
		l26.7-51.7l39.2-69.5l33.9-44.6l19.6-8.9l16,1.8h14.3l-5.3-16l7.1-44.6l46.3-32.1h35.6l21.4-16l35.6,3.6l49.9,10.7l51.7,48.1
		l7.1,37.4l-10.7,16l12.5,19.6l7.1-5.3l19.6,64.2l-5.3,53.5l-23.2,87.3v3.6l19.6,3.6v-5.4l5.3,7.1l7.1-10.7l7.1,8.9l7.1-3.6v-3.6
		l73.1-24.9l23.2-12.5l51.7-17.8l21.4-16l49.9-32.1l24.9-3.6l-98,69.5v3.6l1.8,5.4l-1.8,8.9l-19.6,17.8l-21.4,14.3l3.6,1.8
		l26.7-14.3l-23.2,25l-51.7,35.6v3.6l-19.6,14.3l-26.7,10.7l-24.9,3.6h-8.9l-1.8,7.1l-7.1-3.6l-3.6,7.1l-42.8-23.2l-17.8,33.9
		l-1.8,12.5v10.7l-14.3,10.7l1.8,10.7l-7.1,1.8l-19.6,33.9l1.8,10.7l-51.7,74.9l-3.6,19.6h-5.3l-39.2,48.1l-32.1,28.5l1.8,5.3h7.1
		l39.2-37.4l71.3-92.7l19.6-33.9l39.2-80.2l5.4,3.6l-10.7,30.3l-78.4,130.1l-35.6,48.1l-37.4,37.4l-33.9,23.2l-39.2,12.5l-26.7-12.5
		l-30.3-7.1l-21.4-16l-19.6-5.4l-33.9-51.7l-3.6,12.5l-25-42.8l-19.6-60.6l-7.1-67.7L7086,1125.7z M7094.9,1179.2l17.8-35.6v-12.5
		l17.8-62.4l-1.8-10.7l14.3,3.6l-7.1-8.9l3.6-14.3l7.1,3.6l8.9-12.5l-1.8-12.5v-12.5l5.4,1.8h5.3l-1.8-8.9l-8.9-3.6v-8.9l5.4,8.9
		l12.5-16L7184,944l-5.3-12.5l-37.4,62.4l-39.2,108.7l-7.1,44.6h5.3l-7.1,10.7L7094.9,1179.2z M7094.9,1200.6l5.3-12.5v-7.1
		l-7.1,5.4v7.1L7094.9,1200.6z M7180.5,1250.5v14.3l3.6,49.9l5.4,7.1l1.8-1.8l-3.6-55.3l8.9-39.2l-1.8,12.5v12.5l5.4,69.5l21.4-3.6
		l35.6-26.7l-1.8-3.6l-19.6,12.5l28.5-30.3l16-23.2l-1.8-3.6v-3.6l41-57l5.4,1.8h7.1l-8.9-14.3l7.1,5.4l8.9-10.7l-3.6-7.1
		l58.8-119.4v-5.4l5.4-14.3l-5.4-1.8h7.1l-1.8-7.1l1.8-12.5l-7.1-3.6l-26.7-51.7h-3.6v3.6l21.4,41v1.8l-24.9-42.8l3.6-12.5l-3.6-3.6
		l-7.1-19.6l-26.7,26.7l-41,57h7.1l-14.3,10.7l1.8,7.1l-17.8,23.2l-1.8-10.7l16-26.7h-1.8l-1.8-1.8l51.7-73.1l24.9-23.2l-3.6-8.9
		l-32.1,32.1l-55.3,76.6l-58.8,128.3l-5.4,39.2l-8.9,19.6l-7.1,51.7L7180.5,1250.5z M7180.5,919l3.6,16l10.7-1.8l10.7-26.7h-7.1
		l-3.6,14.3h-7.1L7180.5,919z M7323,1218.4l1.8,8.9l7.1-10.7l-8.9-7.1V1218.4z M7349.8,1145.3l16-12.5l3.6-14.3l10.7-8.9l-5.4-5.4
		l-21.4,25l5.4,5.3l-8.9,1.8V1145.3z M7378.3,1099l3.6-1.8l17.8-23.2l-1.8-8.9h8.9l-7.1-16l14.3-8.9l-7.1-8.9l-30.3,62.4
		L7378.3,1099z M7389,1145.3l3.6-5.3l-5.4-10.7v7.1L7389,1145.3z M7397.9,1205.9l14.3-12.5l5.3-19.6v-5.4l-8.9,1.8l1.8,12.5
		l-10.7,1.8l-7.1,10.7L7397.9,1205.9z M7408.6,1027.7l7.1,7.1l-3.6-12.5L7408.6,1027.7z M7421.1,835.2l23.2,5.3v14.3l1.8-1.8h7.1
		v-16l1.8-16l-1.8-3.6v-5.3l7.1-5.4l-7.1-7.1v-8.9l7.1-3.6l-3.6-19.6l-42.8,28.5L7421.1,835.2z M7426.4,1164.9l5.4-12.5l-7.1-10.7
		l19.6,3.6l3.6-16l26.7-44.6l16,5.4l5.4-8.9h-14.3l-1.8-3.6l-3.6,1.8l1.8-1.8l-16-12.5v8.9l8.9,10.7l-3.6,3.6l-5.4-3.6h-3.6
		l-5.3,3.6l1.8,12.5h-8.9l1.8,10.7l-32.1,42.8L7426.4,1164.9z M7426.4,1074l14.3-10.7l-10.7-5.3l-8.9,12.5L7426.4,1074z
		 M7435.3,1193.5l1.8-5.4v-5.3l-10.7,5.3v5.4l-1.8,5.3L7435.3,1193.5z M7433.5,1054.4l3.6,1.8l-3.6-5.4l-1.8,3.6H7433.5z
		 M7451.4,1159.6v7.1l19.6-42.8l7.1-7.1v-7.1l-12.5,1.8v7.1l-16,33.9L7451.4,1159.6z M7485.2,797.8l-5.4-3.6l-3.6,16L7485.2,797.8z
		 M7479.9,826.3v7.1l3.6-5.4l-5.4-10.7L7479.9,826.3z M7492.3,1015.2l3.6,1.8h7.1v7.1l3.6,3.6l7.1-3.6v-3.6l-1.8-16l7.1-19.6
		l-12.5-7.1l3.6-1.8h1.8l14.3-5.3l-3.6,19.6l-8.9,21.4l5.4,3.6l-1.8-8.9l5.3-1.8h5.4l12.5-41l-7.1-7.1l-17.8,12.5l3.6-8.9l-7.1-3.6
		l-16,21.4l1.8,12.5v12.5L7492.3,1015.2z M7618.9,990.3l5.4-5.3v1.8l1.8,1.8v3.6L7618.9,990.3z M7672.3,1002.8h10.7l-1.8-3.6v-1.8
		L7672.3,1002.8z M7718.7,986.7v-1.8l-1.8-1.8l-30.3,12.5v8.9L7718.7,986.7z"/>
</g>
</svg>
